{
  "source": "C:\\Users\\Peter\\Desktop\\stuff\\MIUN\\quantitative_research\\video_compression\\videos\\UVG\\ShakeNDry_1920x1080_120fps_420_8bit_YUV.y4m",
  "output": "C:\\Users\\Peter\\Desktop\\stuff\\MIUN\\quantitative_research\\video_compression\\compressed_videos\\UVG\\hevc\\2\\ShakeNDry_1920x1080_120fps_420_8bit_YUV_hevc.mp4",
  "codec": "hevc",
  "ok": "[yuv4mpegpipe @ 00000178acb366c0] Stream #0: not enough frames to estimate rate; consider increasing probesize\nInput #0, yuv4mpegpipe, from 'C:\\Users\\Peter\\Desktop\\stuff\\MIUN\\quantitative_research\\video_compression\\videos\\UVG\\ShakeNDry_1920x1080_120fps_420_8bit_YUV.y4m':\n  Duration: 00:00:02.50, start: 0.000000, bitrate: 2985989 kb/s\n  Stream #0:0: Video: rawvideo (I420 / 0x30323449), yuv420p(progressive), 1920x1080, 120 fps, 120 tbr, 120 tbn\n[out#0/mp4 @ 00000178acb3b640] Codec AVOption b:a (set bitrate (in bits/s)) has not been used for any stream. The most likely reason is either wrong type (e.g. a video option with no video streams) or that it is a private option of some decoder which was not actually used for any stream.\nStream mapping:\n  Stream #0:0 -> #0:0 (rawvideo (native) -> hevc (libx265))\nPress [q] to stop, [?] for help\n[libx265 @ 00000178acb3cac0] Unknown option: \"aq-mode.\nx265 [info]: HEVC encoder version 4.1+190-8f11c33ac\nx265 [info]: build info [Windows][GCC 15.1.0][64 bit] 10bit\nx265 [info]: using cpu capabilities: MMX2 SSE2Fast LZCNT SSSE3 SSE4.2 AVX FMA3 BMI2 AVX2\nx265 [info]: Main 10 profile, Level-5 (Main tier)\nx265 [info]: Thread pool created using 12 threads\nx265 [info]: Slices                              : 1\nx265 [info]: frame threads / pool features       : 3 / wpp(17 rows)\nx265 [info]: Coding QT: max CU size, min CU size : 64 / 8\nx265 [info]: Residual QT: max TU size, max depth : 32 / 1 inter / 1 intra\nx265 [info]: ME / range / subpel / merge         : star / 57 / 3 / 3\nx265 [info]: Keyframe min / max / scenecut / bias  : 25 / 250 / 40 / 5.00 \nx265 [info]: Lookahead / bframes / badapt        : 25 / 4 / 2\nx265 [info]: b-pyramid / weightp / weightb       : 1 / 1 / 0\nx265 [info]: References / ref-limit  cu / depth  : 4 / on / on\nx265 [info]: AQ: mode / str / qg-size / cu-tree  : 2 / 1.0 / 32 / 1\nx265 [info]: Rate Control / qCompress            : ABR-2000 kbps / 0.60\nx265 [info]: VBV/HRD buffer / max-rate / init    : 2000 / 2000 / 0.750\nx265 [info]: tools: rect limit-modes rd=4 psy-rd=2.00 rdoq=2 psy-rdoq=1.00\nx265 [info]: tools: rskip mode=1 signhide tmvp strong-intra-smoothing lslices=4\nx265 [info]: tools: deblock sao dhdr10-info\nOutput #0, mp4, to 'C:\\Users\\Peter\\Desktop\\stuff\\MIUN\\quantitative_research\\video_compression\\compressed_videos\\UVG\\hevc\\2\\ShakeNDry_1920x1080_120fps_420_8bit_YUV_hevc.mp4':\n  Metadata:\n    encoder         : Lavf62.3.100\n  Stream #0:0: Video: hevc (hev1 / 0x31766568), yuv420p10le(tv, progressive), 1920x1080, q=2-31, 2000 kb/s, 120 fps, 15360 tbn\n    Metadata:\n      encoder         : Lavc62.11.100 libx265\n    Side data:\n      cpb: bitrate max/min/avg: 2000000/0/2000000 buffer size: 2000000 vbv_delay: N/A\nframe=    0 fps=0.0 q=0.0 size=       0KiB time=N/A bitrate=N/A speed=N/A elapsed=0:00:00.51    \nframe=    0 fps=0.0 q=0.0 size=       0KiB time=N/A bitrate=N/A speed=N/A elapsed=0:00:01.03    \nframe=    0 fps=0.0 q=0.0 size=       0KiB time=N/A bitrate=N/A speed=N/A elapsed=0:00:01.54    \nframe=    0 fps=0.0 q=0.0 size=       0KiB time=N/A bitrate=N/A speed=N/A elapsed=0:00:02.06    \nframe=    0 fps=0.0 q=0.0 size=       0KiB time=N/A bitrate=N/A speed=N/A elapsed=0:00:02.61    \nframe=    0 fps=0.0 q=0.0 size=       0KiB time=N/A bitrate=N/A speed=N/A elapsed=0:00:03.13    \nframe=    0 fps=0.0 q=0.0 size=       0KiB time=N/A bitrate=N/A speed=N/A elapsed=0:00:03.65    \nframe=    0 fps=0.0 q=0.0 size=       0KiB time=N/A bitrate=N/A speed=N/A elapsed=0:00:04.17    \nframe=    0 fps=0.0 q=0.0 size=       0KiB time=N/A bitrate=N/A speed=N/A elapsed=0:00:04.69    \nframe=    0 fps=0.0 q=0.0 size=       0KiB time=N/A bitrate=N/A speed=N/A elapsed=0:00:05.21    \nframe=    0 fps=0.0 q=0.0 size=       0KiB time=N/A bitrate=N/A speed=N/A elapsed=0:00:05.73    \nframe=    1 fps=0.2 q=50.5 size=       0KiB time=-00:00:00.00 bitrate=N/A speed=N/A elapsed=0:00:06.24    \nframe=    1 fps=0.1 q=50.5 size=       0KiB time=-00:00:00.00 bitrate=N/A speed=N/A elapsed=0:00:06.75    \nframe=    2 fps=0.3 q=51.0 size=       0KiB time=00:00:00.00 bitrate=N/A speed=   0x elapsed=0:00:07.26    \nframe=    2 fps=0.3 q=51.0 size=       0KiB time=00:00:00.00 bitrate=N/A speed=   0x elapsed=0:00:07.78    \nframe=    3 fps=0.4 q=51.0 size=       0KiB time=00:00:00.00 bitrate=  42.2kbits/s speed=0.001x elapsed=0:00:08.31    \nframe=    3 fps=0.3 q=51.0 size=       0KiB time=00:00:00.00 bitrate=  42.2kbits/s speed=0.000944x elapsed=0:00:08.83    \nframe=    4 fps=0.4 q=51.0 size=       0KiB time=00:00:00.01 bitrate=  21.1kbits/s speed=0.00178x elapsed=0:00:09.34    \nframe=    4 fps=0.4 q=51.0 size=       0KiB time=00:00:00.01 bitrate=  21.1kbits/s speed=0.00169x elapsed=0:00:09.86    \nframe=    5 fps=0.5 q=51.0 size=       0KiB time=00:00:00.02 bitrate=  14.1kbits/s speed=0.00241x elapsed=0:00:10.37    \nframe=    5 fps=0.5 q=51.0 size=       0KiB time=00:00:00.02 bitrate=  14.1kbits/s speed=0.00229x elapsed=0:00:10.90    \nframe=    5 fps=0.4 q=51.0 size=       0KiB time=00:00:00.02 bitrate=  14.1kbits/s speed=0.00219x elapsed=0:00:11.42    \nframe=    6 fps=0.5 q=51.0 size=       0KiB time=00:00:00.03 bitrate=  10.6kbits/s speed=0.00279x elapsed=0:00:11.93    \nframe=    7 fps=0.6 q=48.5 size=       0KiB time=00:00:00.04 bitrate=   8.4kbits/s speed=0.00335x elapsed=0:00:12.45    \nframe=    7 fps=0.5 q=48.5 size=       0KiB time=00:00:00.04 bitrate=   8.4kbits/s speed=0.00321x elapsed=0:00:12.98    \nframe=    8 fps=0.6 q=51.0 size=       0KiB time=00:00:00.05 bitrate=   7.0kbits/s speed=0.0037x elapsed=0:00:13.51    \nframe=    8 fps=0.6 q=51.0 size=       0KiB time=00:00:00.05 bitrate=   7.0kbits/s speed=0.00357x elapsed=0:00:14.02    \nframe=    9 fps=0.6 q=51.0 size=       0KiB time=00:00:00.05 bitrate=   6.0kbits/s speed=0.00401x elapsed=0:00:14.52    \nframe=    9 fps=0.6 q=51.0 size=       0KiB time=00:00:00.05 bitrate=   6.0kbits/s speed=0.00388x elapsed=0:00:15.05    \nframe=    9 fps=0.6 q=51.0 size=       0KiB time=00:00:00.05 bitrate=   6.0kbits/s speed=0.00375x elapsed=0:00:15.56    \nframe=    9 fps=0.6 q=51.0 size=       0KiB time=00:00:00.05 bitrate=   6.0kbits/s speed=0.00363x elapsed=0:00:16.09    \nframe=    9 fps=0.5 q=51.0 size=       0KiB time=00:00:00.05 bitrate=   6.0kbits/s speed=0.00351x elapsed=0:00:16.61    \nframe=   10 fps=0.6 q=50.9 size=       0KiB time=00:00:00.06 bitrate=   5.3kbits/s speed=0.00389x elapsed=0:00:17.12    \nframe=   10 fps=0.6 q=50.9 size=       0KiB time=00:00:00.06 bitrate=   5.3kbits/s speed=0.00378x elapsed=0:00:17.64    \nframe=   10 fps=0.6 q=50.9 size=       0KiB time=00:00:00.06 bitrate=   5.3kbits/s speed=0.00367x elapsed=0:00:18.15    \nframe=   11 fps=0.6 q=50.6 size=       0KiB time=00:00:00.07 bitrate=   4.7kbits/s speed=0.00402x elapsed=0:00:18.67    \nframe=   12 fps=0.6 q=44.1 size=       0KiB time=00:00:00.08 bitrate=   4.2kbits/s speed=0.00434x elapsed=0:00:19.18    \nframe=   13 fps=0.7 q=50.8 size=       0KiB time=00:00:00.09 bitrate=   3.8kbits/s speed=0.00465x elapsed=0:00:19.70    \nframe=   14 fps=0.7 q=50.7 size=       0KiB time=00:00:00.10 bitrate=   3.5kbits/s speed=0.00495x elapsed=0:00:20.22    \nframe=   14 fps=0.7 q=50.7 size=       0KiB time=00:00:00.10 bitrate=   3.5kbits/s speed=0.00482x elapsed=0:00:20.74    \nframe=   15 fps=0.7 q=50.9 size=       0KiB time=00:00:00.10 bitrate=   3.2kbits/s speed=0.0051x elapsed=0:00:21.24    \nframe=   15 fps=0.7 q=50.9 size=       0KiB time=00:00:00.10 bitrate=   3.2kbits/s speed=0.00498x elapsed=0:00:21.76    \nframe=   16 fps=0.7 q=50.9 size=       0KiB time=00:00:00.11 bitrate=   3.0kbits/s speed=0.00524x elapsed=0:00:22.28    \nframe=   16 fps=0.7 q=50.9 size=       0KiB time=00:00:00.11 bitrate=   3.0kbits/s speed=0.00512x elapsed=0:00:22.80    \nframe=   17 fps=0.7 q=47.5 size=       0KiB time=00:00:00.12 bitrate=   2.8kbits/s speed=0.00536x elapsed=0:00:23.31    \nframe=   17 fps=0.7 q=47.5 size=       0KiB time=00:00:00.12 bitrate=   2.8kbits/s speed=0.00524x elapsed=0:00:23.83    \nframe=   18 fps=0.7 q=50.5 size=       0KiB time=00:00:00.13 bitrate=   2.6kbits/s speed=0.00548x elapsed=0:00:24.34    \nframe=   19 fps=0.8 q=50.9 size=       0KiB time=00:00:00.14 bitrate=   2.5kbits/s speed=0.0057x elapsed=0:00:24.86    \nframe=   19 fps=0.7 q=50.9 size=       0KiB time=00:00:00.14 bitrate=   2.5kbits/s speed=0.00558x elapsed=0:00:25.38    \nframe=   20 fps=0.8 q=49.5 size=       0KiB time=00:00:00.15 bitrate=   2.3kbits/s speed=0.00579x elapsed=0:00:25.89    \nframe=   20 fps=0.8 q=49.5 size=       0KiB time=00:00:00.15 bitrate=   2.3kbits/s speed=0.00568x elapsed=0:00:26.41    \nframe=   21 fps=0.8 q=48.7 size=       0KiB time=00:00:00.15 bitrate=   2.2kbits/s speed=0.00588x elapsed=0:00:26.93    \nframe=   21 fps=0.8 q=48.7 size=       0KiB time=00:00:00.15 bitrate=   2.2kbits/s speed=0.00577x elapsed=0:00:27.46    \nframe=   21 fps=0.8 q=48.7 size=       0KiB time=00:00:00.15 bitrate=   2.2kbits/s speed=0.00566x elapsed=0:00:27.97    \nframe=   22 fps=0.8 q=43.4 size=       0KiB time=00:00:00.16 bitrate=   2.1kbits/s speed=0.00585x elapsed=0:00:28.48    \nframe=   23 fps=0.8 q=48.6 size=       0KiB time=00:00:00.17 bitrate=   2.0kbits/s speed=0.00603x elapsed=0:00:29.00    \nframe=   23 fps=0.8 q=48.6 size=       0KiB time=00:00:00.17 bitrate=   2.0kbits/s speed=0.00593x elapsed=0:00:29.51    \nframe=   24 fps=0.8 q=48.6 size=       0KiB time=00:00:00.18 bitrate=   1.9kbits/s speed=0.00611x elapsed=0:00:30.02    \nframe=   24 fps=0.8 q=48.6 size=       0KiB time=00:00:00.18 bitrate=   1.9kbits/s speed=0.006x elapsed=0:00:30.56    \nframe=   24 fps=0.8 q=48.6 size=       0KiB time=00:00:00.18 bitrate=   1.9kbits/s speed=0.0059x elapsed=0:00:31.07    \nframe=   24 fps=0.8 q=48.6 size=       0KiB time=00:00:00.18 bitrate=   1.9kbits/s speed=0.0058x elapsed=0:00:31.58    \nframe=   24 fps=0.7 q=48.6 size=       0KiB time=00:00:00.18 bitrate=   1.9kbits/s speed=0.00571x elapsed=0:00:32.10    \nframe=   24 fps=0.7 q=48.6 size=       0KiB time=00:00:00.18 bitrate=   1.9kbits/s speed=0.00562x elapsed=0:00:32.60    \nframe=   25 fps=0.8 q=47.6 size=       0KiB time=00:00:00.19 bitrate=   1.8kbits/s speed=0.00579x elapsed=0:00:33.13    \nframe=   25 fps=0.7 q=47.6 size=       0KiB time=00:00:00.19 bitrate=   1.8kbits/s speed=0.0057x elapsed=0:00:33.64    \nframe=   25 fps=0.7 q=47.6 size=       0KiB time=00:00:00.19 bitrate=   1.8kbits/s speed=0.00561x elapsed=0:00:34.16    \nframe=   25 fps=0.7 q=47.6 size=       0KiB time=00:00:00.19 bitrate=   1.8kbits/s speed=0.00553x elapsed=0:00:34.67    \nframe=   26 fps=0.7 q=47.6 size=       0KiB time=00:00:00.20 bitrate=   1.8kbits/s speed=0.00568x elapsed=0:00:35.18    \nframe=   26 fps=0.7 q=47.6 size=       0KiB time=00:00:00.20 bitrate=   1.8kbits/s speed=0.0056x elapsed=0:00:35.70    \nframe=   27 fps=0.7 q=42.1 size=       0KiB time=00:00:00.20 bitrate=   1.7kbits/s speed=0.00575x elapsed=0:00:36.21    \nframe=   27 fps=0.7 q=42.1 size=       0KiB time=00:00:00.20 bitrate=   1.7kbits/s speed=0.00567x elapsed=0:00:36.74    \nframe=   27 fps=0.7 q=42.1 size=       0KiB time=00:00:00.20 bitrate=   1.7kbits/s speed=0.00559x elapsed=0:00:37.25    \nframe=   27 fps=0.7 q=42.1 size=       0KiB time=00:00:00.20 bitrate=   1.7kbits/s speed=0.00552x elapsed=0:00:37.77    \nframe=   28 fps=0.7 q=47.2 size=       0KiB time=00:00:00.21 bitrate=   1.6kbits/s speed=0.00566x elapsed=0:00:38.28    \nframe=   28 fps=0.7 q=47.2 size=       0KiB time=00:00:00.21 bitrate=   1.6kbits/s speed=0.00558x elapsed=0:00:38.80    \nframe=   29 fps=0.7 q=47.5 size=       0KiB time=00:00:00.22 bitrate=   1.6kbits/s speed=0.00572x elapsed=0:00:39.31    \nframe=   29 fps=0.7 q=47.5 size=       0KiB time=00:00:00.22 bitrate=   1.6kbits/s speed=0.00565x elapsed=0:00:39.84    \nframe=   29 fps=0.7 q=47.5 size=       0KiB time=00:00:00.22 bitrate=   1.6kbits/s speed=0.00557x elapsed=0:00:40.36    \nframe=   30 fps=0.7 q=47.3 size=       0KiB time=00:00:00.23 bitrate=   1.5kbits/s speed=0.00571x elapsed=0:00:40.88    \nframe=   30 fps=0.7 q=47.3 size=       0KiB time=00:00:00.23 bitrate=   1.5kbits/s speed=0.00564x elapsed=0:00:41.39    \nframe=   30 fps=0.7 q=47.3 size=       0KiB time=00:00:00.23 bitrate=   1.5kbits/s speed=0.00557x elapsed=0:00:41.91    \nframe=   31 fps=0.7 q=46.7 size=       0KiB time=00:00:00.24 bitrate=   1.5kbits/s speed=0.0057x elapsed=0:00:42.42    \nframe=   31 fps=0.7 q=46.7 size=       0KiB time=00:00:00.24 bitrate=   1.5kbits/s speed=0.00563x elapsed=0:00:42.93    \nframe=   31 fps=0.7 q=46.7 size=       0KiB time=00:00:00.24 bitrate=   1.5kbits/s speed=0.00556x elapsed=0:00:43.45    \nframe=   32 fps=0.7 q=41.3 size=       0KiB time=00:00:00.25 bitrate=   1.4kbits/s speed=0.00569x elapsed=0:00:43.96    \nframe=   33 fps=0.7 q=46.4 size=       0KiB time=00:00:00.25 bitrate=   1.4kbits/s speed=0.00581x elapsed=0:00:44.48    \nframe=   33 fps=0.7 q=46.4 size=       0KiB time=00:00:00.25 bitrate=   1.4kbits/s speed=0.00574x elapsed=0:00:45.00    \nframe=   34 fps=0.7 q=47.3 size=       0KiB time=00:00:00.26 bitrate=   1.3kbits/s speed=0.00586x elapsed=0:00:45.51    \nframe=   34 fps=0.7 q=47.3 size=       0KiB time=00:00:00.26 bitrate=   1.3kbits/s speed=0.00579x elapsed=0:00:46.03    \nframe=   34 fps=0.7 q=47.3 size=       0KiB time=00:00:00.26 bitrate=   1.3kbits/s speed=0.00573x elapsed=0:00:46.55    \nframe=   34 fps=0.7 q=47.3 size=       0KiB time=00:00:00.26 bitrate=   1.3kbits/s speed=0.00567x elapsed=0:00:47.06    \nframe=   35 fps=0.7 q=47.5 size=       0KiB time=00:00:00.27 bitrate=   1.3kbits/s speed=0.00578x elapsed=0:00:47.58    \nframe=   35 fps=0.7 q=47.5 size=       0KiB time=00:00:00.27 bitrate=   1.3kbits/s speed=0.00572x elapsed=0:00:48.10    \nframe=   36 fps=0.7 q=47.6 size=       0KiB time=00:00:00.28 bitrate=   1.2kbits/s speed=0.00583x elapsed=0:00:48.61    \nframe=   36 fps=0.7 q=47.6 size=       0KiB time=00:00:00.28 bitrate=   1.2kbits/s speed=0.00577x elapsed=0:00:49.12    \nframe=   36 fps=0.7 q=47.6 size=       0KiB time=00:00:00.28 bitrate=   1.2kbits/s speed=0.00571x elapsed=0:00:49.63    \nframe=   36 fps=0.7 q=47.6 size=       0KiB time=00:00:00.28 bitrate=   1.2kbits/s speed=0.00565x elapsed=0:00:50.16    \nframe=   37 fps=0.7 q=42.8 size=       0KiB time=00:00:00.29 bitrate=   1.2kbits/s speed=0.00576x elapsed=0:00:50.67    \nframe=   37 fps=0.7 q=42.8 size=       0KiB time=00:00:00.29 bitrate=   1.2kbits/s speed=0.0057x elapsed=0:00:51.19    \nframe=   38 fps=0.7 q=46.3 size=       0KiB time=00:00:00.30 bitrate=   1.2kbits/s speed=0.0058x elapsed=0:00:51.71    \nframe=   38 fps=0.7 q=46.3 size=       0KiB time=00:00:00.30 bitrate=   1.2kbits/s speed=0.00575x elapsed=0:00:52.21    \nframe=   38 fps=0.7 q=46.3 size=       0KiB time=00:00:00.30 bitrate=   1.2kbits/s speed=0.00569x elapsed=0:00:52.73    \nframe=   39 fps=0.7 q=47.4 size=       0KiB time=00:00:00.30 bitrate=   1.1kbits/s speed=0.00579x elapsed=0:00:53.26    \nframe=   39 fps=0.7 q=47.4 size=       0KiB time=00:00:00.30 bitrate=   1.1kbits/s speed=0.00573x elapsed=0:00:53.77    \nframe=   39 fps=0.7 q=47.4 size=       0KiB time=00:00:00.30 bitrate=   1.1kbits/s speed=0.00568x elapsed=0:00:54.28    \nframe=   40 fps=0.7 q=46.3 size=       0KiB time=00:00:00.31 bitrate=   1.1kbits/s speed=0.00578x elapsed=0:00:54.80    \nframe=   40 fps=0.7 q=46.3 size=       0KiB time=00:00:00.31 bitrate=   1.1kbits/s speed=0.00573x elapsed=0:00:55.31    \nframe=   40 fps=0.7 q=46.3 size=       0KiB time=00:00:00.31 bitrate=   1.1kbits/s speed=0.00567x elapsed=0:00:55.83    \nframe=   41 fps=0.7 q=46.5 size=       0KiB time=00:00:00.32 bitrate=   1.1kbits/s speed=0.00577x elapsed=0:00:56.34    \nframe=   41 fps=0.7 q=46.5 size=       0KiB time=00:00:00.32 bitrate=   1.1kbits/s speed=0.00572x elapsed=0:00:56.86    \nframe=   42 fps=0.7 q=41.3 size=       0KiB time=00:00:00.33 bitrate=   1.1kbits/s speed=0.00581x elapsed=0:00:57.38    \nframe=   42 fps=0.7 q=41.3 size=       0KiB time=00:00:00.33 bitrate=   1.1kbits/s speed=0.00576x elapsed=0:00:57.90    \nframe=   43 fps=0.7 q=45.5 size=       0KiB time=00:00:00.34 bitrate=   1.0kbits/s speed=0.00585x elapsed=0:00:58.41    \nframe=   43 fps=0.7 q=45.5 size=       0KiB time=00:00:00.34 bitrate=   1.0kbits/s speed=0.0058x elapsed=0:00:58.93    \nframe=   44 fps=0.7 q=46.4 size=       0KiB time=00:00:00.35 bitrate=   1.0kbits/s speed=0.00589x elapsed=0:00:59.43    \nframe=   44 fps=0.7 q=46.4 size=       0KiB time=00:00:00.35 bitrate=   1.0kbits/s speed=0.00584x elapsed=0:00:59.96    \nframe=   44 fps=0.7 q=46.4 size=       0KiB time=00:00:00.35 bitrate=   1.0kbits/s speed=0.00579x elapsed=0:01:00.47    \nframe=   45 fps=0.7 q=46.3 size=       0KiB time=00:00:00.35 bitrate=   1.0kbits/s speed=0.00588x elapsed=0:01:00.98    \nframe=   45 fps=0.7 q=46.3 size=       0KiB time=00:00:00.35 bitrate=   1.0kbits/s speed=0.00583x elapsed=0:01:01.50    \nframe=   46 fps=0.7 q=46.4 size=       0KiB time=00:00:00.36 bitrate=   1.0kbits/s speed=0.00591x elapsed=0:01:02.01    \nframe=   46 fps=0.7 q=46.4 size=       0KiB time=00:00:00.36 bitrate=   1.0kbits/s speed=0.00586x elapsed=0:01:02.52    \nframe=   46 fps=0.7 q=46.4 size=       0KiB time=00:00:00.36 bitrate=   1.0kbits/s speed=0.00581x elapsed=0:01:03.05    \nframe=   47 fps=0.7 q=42.1 size=       0KiB time=00:00:00.37 bitrate=   0.9kbits/s speed=0.0059x elapsed=0:01:03.56    \nframe=   47 fps=0.7 q=42.1 size=       0KiB time=00:00:00.37 bitrate=   0.9kbits/s speed=0.00585x elapsed=0:01:04.08    \nframe=   48 fps=0.7 q=45.4 size=       0KiB time=00:00:00.38 bitrate=   0.9kbits/s speed=0.00593x elapsed=0:01:04.60    \nframe=   49 fps=0.8 q=46.5 size=       0KiB time=00:00:00.39 bitrate=   0.9kbits/s speed=0.00601x elapsed=0:01:05.11    \nframe=   49 fps=0.7 q=46.5 size=       0KiB time=00:00:00.39 bitrate=   0.9kbits/s speed=0.00597x elapsed=0:01:05.63    \nframe=   49 fps=0.7 q=46.5 size=       0KiB time=00:00:00.39 bitrate=   0.9kbits/s speed=0.00592x elapsed=0:01:06.15    \nframe=   49 fps=0.7 q=46.5 size=       0KiB time=00:00:00.39 bitrate=   0.9kbits/s speed=0.00587x elapsed=0:01:06.67    \nframe=   49 fps=0.7 q=46.5 size=       0KiB time=00:00:00.39 bitrate=   0.9kbits/s speed=0.00583x elapsed=0:01:07.19    \nframe=   49 fps=0.7 q=46.5 size=       0KiB time=00:00:00.39 bitrate=   0.9kbits/s speed=0.00578x elapsed=0:01:07.71    \nframe=   50 fps=0.7 q=46.3 size=       0KiB time=00:00:00.40 bitrate=   0.9kbits/s speed=0.00586x elapsed=0:01:08.24    \nframe=   50 fps=0.7 q=46.3 size=       0KiB time=00:00:00.40 bitrate=   0.9kbits/s speed=0.00582x elapsed=0:01:08.76    \nframe=   50 fps=0.7 q=46.3 size=       0KiB time=00:00:00.40 bitrate=   0.9kbits/s speed=0.00577x elapsed=0:01:09.27    \nframe=   50 fps=0.7 q=46.3 size=       0KiB time=00:00:00.40 bitrate=   0.9kbits/s speed=0.00573x elapsed=0:01:09.78    \nframe=   50 fps=0.7 q=46.3 size=       0KiB time=00:00:00.40 bitrate=   0.9kbits/s speed=0.00569x elapsed=0:01:10.30    \nframe=   51 fps=0.7 q=46.4 size=       0KiB time=00:00:00.40 bitrate=   0.9kbits/s speed=0.00577x elapsed=0:01:10.81    \nframe=   51 fps=0.7 q=46.4 size=       0KiB time=00:00:00.40 bitrate=   0.9kbits/s speed=0.00572x elapsed=0:01:11.33    \nframe=   51 fps=0.7 q=46.4 size=       0KiB time=00:00:00.40 bitrate=   0.9kbits/s speed=0.00568x elapsed=0:01:11.84    \nframe=   52 fps=0.7 q=41.6 size=       0KiB time=00:00:00.41 bitrate=   0.8kbits/s speed=0.00576x elapsed=0:01:12.36    \nframe=   52 fps=0.7 q=41.6 size=       0KiB time=00:00:00.41 bitrate=   0.8kbits/s speed=0.00572x elapsed=0:01:12.87    \nframe=   52 fps=0.7 q=41.6 size=       0KiB time=00:00:00.41 bitrate=   0.8kbits/s speed=0.00568x elapsed=0:01:13.39    \nframe=   52 fps=0.7 q=41.6 size=       0KiB time=00:00:00.41 bitrate=   0.8kbits/s speed=0.00564x elapsed=0:01:13.91    \nframe=   53 fps=0.7 q=45.2 size=       0KiB time=00:00:00.42 bitrate=   0.8kbits/s speed=0.00571x elapsed=0:01:14.43    \nframe=   53 fps=0.7 q=45.2 size=       0KiB time=00:00:00.42 bitrate=   0.8kbits/s speed=0.00567x elapsed=0:01:14.95    \nframe=   54 fps=0.7 q=46.4 size=       0KiB time=00:00:00.43 bitrate=   0.8kbits/s speed=0.00574x elapsed=0:01:15.47    \nframe=   54 fps=0.7 q=46.4 size=       0KiB time=00:00:00.43 bitrate=   0.8kbits/s speed=0.0057x elapsed=0:01:15.99    \nframe=   54 fps=0.7 q=46.4 size=       0KiB time=00:00:00.43 bitrate=   0.8kbits/s speed=0.00566x elapsed=0:01:16.50    \nframe=   55 fps=0.7 q=46.2 size=       0KiB time=00:00:00.44 bitrate=   0.8kbits/s speed=0.00573x elapsed=0:01:17.01    \nframe=   55 fps=0.7 q=46.2 size=       0KiB time=00:00:00.44 bitrate=   0.8kbits/s speed=0.0057x elapsed=0:01:17.53    \nframe=   55 fps=0.7 q=46.2 size=       0KiB time=00:00:00.44 bitrate=   0.8kbits/s speed=0.00566x elapsed=0:01:18.05    \nframe=   55 fps=0.7 q=46.2 size=       0KiB time=00:00:00.44 bitrate=   0.8kbits/s speed=0.00562x elapsed=0:01:18.57    \nframe=   55 fps=0.7 q=46.2 size=       0KiB time=00:00:00.44 bitrate=   0.8kbits/s speed=0.00558x elapsed=0:01:19.08    \nframe=   56 fps=0.7 q=46.2 size=       0KiB time=00:00:00.45 bitrate=   0.8kbits/s speed=0.00565x elapsed=0:01:19.59    \nframe=   57 fps=0.7 q=41.0 size=       0KiB time=00:00:00.45 bitrate=   0.8kbits/s speed=0.00572x elapsed=0:01:20.11    \nframe=   57 fps=0.7 q=41.0 size=       0KiB time=00:00:00.45 bitrate=   0.8kbits/s speed=0.00568x elapsed=0:01:20.63    \nframe=   57 fps=0.7 q=41.0 size=       0KiB time=00:00:00.45 bitrate=   0.8kbits/s speed=0.00565x elapsed=0:01:21.14    \nframe=   58 fps=0.7 q=45.1 size=       0KiB time=00:00:00.46 bitrate=   0.8kbits/s speed=0.00572x elapsed=0:01:21.65    \nframe=   58 fps=0.7 q=45.1 size=       0KiB time=00:00:00.46 bitrate=   0.8kbits/s speed=0.00568x elapsed=0:01:22.17    \nframe=   59 fps=0.7 q=46.4 size=       0KiB time=00:00:00.47 bitrate=   0.7kbits/s speed=0.00574x elapsed=0:01:22.68    \nframe=   59 fps=0.7 q=46.4 size=       0KiB time=00:00:00.47 bitrate=   0.7kbits/s speed=0.00571x elapsed=0:01:23.21    \nframe=   59 fps=0.7 q=46.4 size=       0KiB time=00:00:00.47 bitrate=   0.7kbits/s speed=0.00567x elapsed=0:01:23.72    \nframe=   59 fps=0.7 q=46.4 size=       0KiB time=00:00:00.47 bitrate=   0.7kbits/s speed=0.00564x elapsed=0:01:24.24    \nframe=   59 fps=0.7 q=46.4 size=       0KiB time=00:00:00.47 bitrate=   0.7kbits/s speed=0.0056x elapsed=0:01:24.75    \nframe=   60 fps=0.7 q=46.2 size=       0KiB time=00:00:00.48 bitrate=   0.7kbits/s speed=0.00567x elapsed=0:01:25.27    \nframe=   60 fps=0.7 q=46.2 size=       0KiB time=00:00:00.48 bitrate=   0.7kbits/s speed=0.00563x elapsed=0:01:25.78    \nframe=   60 fps=0.7 q=46.2 size=       0KiB time=00:00:00.48 bitrate=   0.7kbits/s speed=0.0056x elapsed=0:01:26.30    \nframe=   61 fps=0.7 q=46.3 size=       0KiB time=00:00:00.49 bitrate=   0.7kbits/s speed=0.00566x elapsed=0:01:26.82    \nframe=   61 fps=0.7 q=46.3 size=       0KiB time=00:00:00.49 bitrate=   0.7kbits/s speed=0.00563x elapsed=0:01:27.33    \nframe=   61 fps=0.7 q=46.3 size=       0KiB time=00:00:00.49 bitrate=   0.7kbits/s speed=0.0056x elapsed=0:01:27.84    \nframe=   61 fps=0.7 q=46.3 size=       0KiB time=00:00:00.49 bitrate=   0.7kbits/s speed=0.00556x elapsed=0:01:28.35    \nframe=   62 fps=0.7 q=40.6 size=       0KiB time=00:00:00.50 bitrate=   0.7kbits/s speed=0.00563x elapsed=0:01:28.88    \nframe=   63 fps=0.7 q=45.1 size=       0KiB time=00:00:00.50 bitrate=   0.7kbits/s speed=0.00569x elapsed=0:01:29.39    \nframe=   63 fps=0.7 q=45.1 size=       0KiB time=00:00:00.50 bitrate=   0.7kbits/s speed=0.00565x elapsed=0:01:29.90    \nframe=   63 fps=0.7 q=45.1 size=       0KiB time=00:00:00.50 bitrate=   0.7kbits/s speed=0.00562x elapsed=0:01:30.42    \nframe=   64 fps=0.7 q=46.3 size=       0KiB time=00:00:00.51 bitrate=   0.7kbits/s speed=0.00568x elapsed=0:01:30.93    \nframe=   64 fps=0.7 q=46.3 size=       0KiB time=00:00:00.51 bitrate=   0.7kbits/s speed=0.00565x elapsed=0:01:31.45    \nframe=   64 fps=0.7 q=46.3 size=       0KiB time=00:00:00.51 bitrate=   0.7kbits/s speed=0.00562x elapsed=0:01:31.97    \nframe=   64 fps=0.7 q=46.3 size=       0KiB time=00:00:00.51 bitrate=   0.7kbits/s speed=0.00559x elapsed=0:01:32.49    \nframe=   65 fps=0.7 q=45.5 size=       0KiB time=00:00:00.52 bitrate=   0.7kbits/s speed=0.00564x elapsed=0:01:33.00    \nframe=   65 fps=0.7 q=45.5 size=       0KiB time=00:00:00.52 bitrate=   0.7kbits/s speed=0.00561x elapsed=0:01:33.51    \nframe=   65 fps=0.7 q=45.5 size=       0KiB time=00:00:00.52 bitrate=   0.7kbits/s speed=0.00558x elapsed=0:01:34.03    \nframe=   65 fps=0.7 q=45.5 size=       0KiB time=00:00:00.52 bitrate=   0.7kbits/s speed=0.00555x elapsed=0:01:34.55    \nframe=   65 fps=0.7 q=45.5 size=       0KiB time=00:00:00.52 bitrate=   0.7kbits/s speed=0.00552x elapsed=0:01:35.06    \nframe=   66 fps=0.7 q=45.4 size=       0KiB time=00:00:00.53 bitrate=   0.7kbits/s speed=0.00558x elapsed=0:01:35.57    \nframe=   67 fps=0.7 q=40.9 size=       0KiB time=00:00:00.54 bitrate=   0.6kbits/s speed=0.00564x elapsed=0:01:36.10    \nframe=   67 fps=0.7 q=40.9 size=       0KiB time=00:00:00.54 bitrate=   0.6kbits/s speed=0.00561x elapsed=0:01:36.61    \nframe=   67 fps=0.7 q=40.9 size=       0KiB time=00:00:00.54 bitrate=   0.6kbits/s speed=0.00558x elapsed=0:01:37.13    \nframe=   68 fps=0.7 q=45.0 size=       0KiB time=00:00:00.55 bitrate=   0.6kbits/s speed=0.00563x elapsed=0:01:37.64    \nframe=   68 fps=0.7 q=45.0 size=       0KiB time=00:00:00.55 bitrate=   0.6kbits/s speed=0.0056x elapsed=0:01:38.16    \nframe=   68 fps=0.7 q=45.0 size=       0KiB time=00:00:00.55 bitrate=   0.6kbits/s speed=0.00557x elapsed=0:01:38.68    \nframe=   69 fps=0.7 q=45.6 size=       0KiB time=00:00:00.55 bitrate=   0.6kbits/s speed=0.00563x elapsed=0:01:39.20    \nframe=   69 fps=0.7 q=45.6 size=       0KiB time=00:00:00.55 bitrate=   0.6kbits/s speed=0.0056x elapsed=0:01:39.71    \nframe=   69 fps=0.7 q=45.6 size=       0KiB time=00:00:00.55 bitrate=   0.6kbits/s speed=0.00557x elapsed=0:01:40.23    \nframe=   70 fps=0.7 q=45.5 size=       0KiB time=00:00:00.56 bitrate=   0.6kbits/s speed=0.00562x elapsed=0:01:40.75    \nframe=   70 fps=0.7 q=45.5 size=       0KiB time=00:00:00.56 bitrate=   0.6kbits/s speed=0.0056x elapsed=0:01:41.27    \nframe=   70 fps=0.7 q=45.5 size=       0KiB time=00:00:00.56 bitrate=   0.6kbits/s speed=0.00557x elapsed=0:01:41.78    \nframe=   70 fps=0.7 q=45.5 size=       0KiB time=00:00:00.56 bitrate=   0.6kbits/s speed=0.00554x elapsed=0:01:42.29    \nframe=   71 fps=0.7 q=45.5 size=       0KiB time=00:00:00.57 bitrate=   0.6kbits/s speed=0.00559x elapsed=0:01:42.82    \nframe=   71 fps=0.7 q=45.5 size=       0KiB time=00:00:00.57 bitrate=   0.6kbits/s speed=0.00556x elapsed=0:01:43.33    \nframe=   71 fps=0.7 q=45.5 size=       0KiB time=00:00:00.57 bitrate=   0.6kbits/s speed=0.00554x elapsed=0:01:43.84    \nframe=   71 fps=0.7 q=45.5 size=       0KiB time=00:00:00.57 bitrate=   0.6kbits/s speed=0.00551x elapsed=0:01:44.36    \nframe=   72 fps=0.7 q=41.0 size=       0KiB time=00:00:00.58 bitrate=   0.6kbits/s speed=0.00556x elapsed=0:01:44.88    \nframe=   73 fps=0.7 q=44.3 size=       0KiB time=00:00:00.59 bitrate=   0.6kbits/s speed=0.00561x elapsed=0:01:45.39    \nframe=   74 fps=0.7 q=45.5 size=       0KiB time=00:00:00.60 bitrate=   0.6kbits/s speed=0.00566x elapsed=0:01:45.99    \nframe=   74 fps=0.7 q=45.5 size=       0KiB time=00:00:00.60 bitrate=   0.6kbits/s speed=0.00563x elapsed=0:01:46.55    \nframe=   75 fps=0.7 q=45.5 size=       0KiB time=00:00:00.60 bitrate=   0.6kbits/s speed=0.00568x elapsed=0:01:47.08    \nframe=   76 fps=0.7 q=45.5 size=       0KiB time=00:00:00.61 bitrate=   0.6kbits/s speed=0.00573x elapsed=0:01:47.61    \nframe=   76 fps=0.7 q=45.5 size=       0KiB time=00:00:00.61 bitrate=   0.6kbits/s speed=0.0057x elapsed=0:01:48.13    \nframe=   77 fps=0.7 q=41.0 size=       0KiB time=00:00:00.62 bitrate=   0.6kbits/s speed=0.00575x elapsed=0:01:48.66    \nframe=   77 fps=0.7 q=41.0 size=       0KiB time=00:00:00.62 bitrate=   0.6kbits/s speed=0.00572x elapsed=0:01:49.17    \nframe=   77 fps=0.7 q=41.0 size=       0KiB time=00:00:00.62 bitrate=   0.6kbits/s speed=0.0057x elapsed=0:01:49.69    \nframe=   78 fps=0.7 q=44.1 size=       0KiB time=00:00:00.63 bitrate=   0.6kbits/s speed=0.00575x elapsed=0:01:50.20    \nframe=   78 fps=0.7 q=44.1 size=       0KiB time=00:00:00.63 bitrate=   0.6kbits/s speed=0.00572x elapsed=0:01:50.72    \nframe=   78 fps=0.7 q=44.1 size=       0KiB time=00:00:00.63 bitrate=   0.6kbits/s speed=0.00569x elapsed=0:01:51.25    \nframe=   79 fps=0.7 q=45.4 size=       0KiB time=00:00:00.64 bitrate=   0.5kbits/s speed=0.00574x elapsed=0:01:51.77    \nframe=   79 fps=0.7 q=45.4 size=       0KiB time=00:00:00.64 bitrate=   0.5kbits/s speed=0.00571x elapsed=0:01:52.28    \nframe=   80 fps=0.7 q=45.3 size=       0KiB time=00:00:00.65 bitrate=   0.5kbits/s speed=0.00576x elapsed=0:01:52.80    \nframe=   80 fps=0.7 q=45.3 size=       0KiB time=00:00:00.65 bitrate=   0.5kbits/s speed=0.00574x elapsed=0:01:53.32    \nframe=   80 fps=0.7 q=45.3 size=       0KiB time=00:00:00.65 bitrate=   0.5kbits/s speed=0.00571x elapsed=0:01:53.83    \nframe=   81 fps=0.7 q=45.3 size=       0KiB time=00:00:00.65 bitrate=   0.5kbits/s speed=0.00576x elapsed=0:01:54.35    \nframe=   81 fps=0.7 q=45.3 size=       0KiB time=00:00:00.65 bitrate=   0.5kbits/s speed=0.00573x elapsed=0:01:54.88    \nframe=   81 fps=0.7 q=45.3 size=       0KiB time=00:00:00.65 bitrate=   0.5kbits/s speed=0.0057x elapsed=0:01:55.41    \nframe=   81 fps=0.7 q=45.3 size=       0KiB time=00:00:00.65 bitrate=   0.5kbits/s speed=0.00568x elapsed=0:01:55.92    \nframe=   82 fps=0.7 q=40.7 size=       0KiB time=00:00:00.66 bitrate=   0.5kbits/s speed=0.00573x elapsed=0:01:56.43    \nframe=   82 fps=0.7 q=40.7 size=       0KiB time=00:00:00.66 bitrate=   0.5kbits/s speed=0.0057x elapsed=0:01:56.96    \nframe=   82 fps=0.7 q=40.7 size=       0KiB time=00:00:00.66 bitrate=   0.5kbits/s speed=0.00567x elapsed=0:01:57.47    \nframe=   83 fps=0.7 q=44.1 size=       0KiB time=00:00:00.67 bitrate=   0.5kbits/s speed=0.00572x elapsed=0:01:57.98    \nframe=   83 fps=0.7 q=44.1 size=       0KiB time=00:00:00.67 bitrate=   0.5kbits/s speed=0.0057x elapsed=0:01:58.51    \nframe=   83 fps=0.7 q=44.1 size=       0KiB time=00:00:00.67 bitrate=   0.5kbits/s speed=0.00567x elapsed=0:01:59.03    \nframe=   84 fps=0.7 q=45.4 size=       0KiB time=00:00:00.68 bitrate=   0.5kbits/s speed=0.00572x elapsed=0:01:59.55    \nframe=   84 fps=0.7 q=45.4 size=       0KiB time=00:00:00.68 bitrate=   0.5kbits/s speed=0.00569x elapsed=0:02:00.06    \nframe=   84 fps=0.7 q=45.4 size=       0KiB time=00:00:00.68 bitrate=   0.5kbits/s speed=0.00567x elapsed=0:02:00.57    \nframe=   84 fps=0.7 q=45.4 size=       0KiB time=00:00:00.68 bitrate=   0.5kbits/s speed=0.00564x elapsed=0:02:01.10    \nframe=   85 fps=0.7 q=45.3 size=       0KiB time=00:00:00.69 bitrate=   0.5kbits/s speed=0.00569x elapsed=0:02:01.61    \nframe=   86 fps=0.7 q=45.4 size=       0KiB time=00:00:00.70 bitrate=   0.5kbits/s speed=0.00573x elapsed=0:02:02.13    \nframe=   86 fps=0.7 q=45.4 size=       0KiB time=00:00:00.70 bitrate=   0.5kbits/s speed=0.00571x elapsed=0:02:02.64    \nframe=   86 fps=0.7 q=45.4 size=       0KiB time=00:00:00.70 bitrate=   0.5kbits/s speed=0.00568x elapsed=0:02:03.16    \nframe=   86 fps=0.7 q=45.4 size=       0KiB time=00:00:00.70 bitrate=   0.5kbits/s speed=0.00566x elapsed=0:02:03.68    \nframe=   86 fps=0.7 q=45.4 size=       0KiB time=00:00:00.70 bitrate=   0.5kbits/s speed=0.00564x elapsed=0:02:04.19    \nframe=   87 fps=0.7 q=40.7 size=       0KiB time=00:00:00.70 bitrate=   0.5kbits/s speed=0.00568x elapsed=0:02:04.71    \nframe=   88 fps=0.7 q=44.2 size=       0KiB time=00:00:00.71 bitrate=   0.5kbits/s speed=0.00572x elapsed=0:02:05.21    \nframe=   88 fps=0.7 q=44.2 size=       0KiB time=00:00:00.71 bitrate=   0.5kbits/s speed=0.0057x elapsed=0:02:05.73    \nframe=   88 fps=0.7 q=44.2 size=       0KiB time=00:00:00.71 bitrate=   0.5kbits/s speed=0.00568x elapsed=0:02:06.25    \nframe=   89 fps=0.7 q=45.3 size=       0KiB time=00:00:00.72 bitrate=   0.5kbits/s speed=0.00572x elapsed=0:02:06.76    \nframe=   89 fps=0.7 q=45.3 size=       0KiB time=00:00:00.72 bitrate=   0.5kbits/s speed=0.0057x elapsed=0:02:07.28    \nframe=   89 fps=0.7 q=45.3 size=       0KiB time=00:00:00.72 bitrate=   0.5kbits/s speed=0.00567x elapsed=0:02:07.79    \nframe=   90 fps=0.7 q=45.2 size=       0KiB time=00:00:00.73 bitrate=   0.5kbits/s speed=0.00572x elapsed=0:02:08.31    \nframe=   90 fps=0.7 q=45.2 size=       0KiB time=00:00:00.73 bitrate=   0.5kbits/s speed=0.00569x elapsed=0:02:08.83    \nframe=   90 fps=0.7 q=45.2 size=       0KiB time=00:00:00.73 bitrate=   0.5kbits/s speed=0.00567x elapsed=0:02:09.35    \nframe=   91 fps=0.7 q=45.4 size=       0KiB time=00:00:00.74 bitrate=   0.5kbits/s speed=0.00571x elapsed=0:02:09.86    \nframe=   91 fps=0.7 q=45.4 size=       0KiB time=00:00:00.74 bitrate=   0.5kbits/s speed=0.00569x elapsed=0:02:10.38    \nframe=   92 fps=0.7 q=40.0 size=       0KiB time=00:00:00.75 bitrate=   0.5kbits/s speed=0.00573x elapsed=0:02:10.89    \nframe=   92 fps=0.7 q=40.0 size=       0KiB time=00:00:00.75 bitrate=   0.5kbits/s speed=0.00571x elapsed=0:02:11.41    \nframe=   92 fps=0.7 q=40.0 size=       0KiB time=00:00:00.75 bitrate=   0.5kbits/s speed=0.00569x elapsed=0:02:11.92    \nframe=   93 fps=0.7 q=44.0 size=       0KiB time=00:00:00.75 bitrate=   0.5kbits/s speed=0.00573x elapsed=0:02:12.44    \nframe=   93 fps=0.7 q=44.0 size=       0KiB time=00:00:00.75 bitrate=   0.5kbits/s speed=0.0057x elapsed=0:02:12.96    \nframe=   94 fps=0.7 q=45.4 size=       0KiB time=00:00:00.76 bitrate=   0.5kbits/s speed=0.00574x elapsed=0:02:13.47    \nframe=   94 fps=0.7 q=45.4 size=       0KiB time=00:00:00.76 bitrate=   0.5kbits/s speed=0.00572x elapsed=0:02:13.98    \nframe=   94 fps=0.7 q=45.4 size=       0KiB time=00:00:00.76 bitrate=   0.5kbits/s speed=0.0057x elapsed=0:02:14.49    \nframe=   94 fps=0.7 q=45.4 size=       0KiB time=00:00:00.76 bitrate=   0.5kbits/s speed=0.00568x elapsed=0:02:15.01    \nframe=   95 fps=0.7 q=45.2 size=       0KiB time=00:00:00.77 bitrate=   0.5kbits/s speed=0.00572x elapsed=0:02:15.53    \nframe=   95 fps=0.7 q=45.2 size=       0KiB time=00:00:00.77 bitrate=   0.5kbits/s speed=0.0057x elapsed=0:02:16.04    \nframe=   95 fps=0.7 q=45.2 size=       0KiB time=00:00:00.77 bitrate=   0.5kbits/s speed=0.00567x elapsed=0:02:16.56    \nframe=   95 fps=0.7 q=45.2 size=       0KiB time=00:00:00.77 bitrate=   0.5kbits/s speed=0.00565x elapsed=0:02:17.08    \nframe=   96 fps=0.7 q=45.4 size=       0KiB time=00:00:00.78 bitrate=   0.4kbits/s speed=0.00569x elapsed=0:02:17.59    \nframe=   96 fps=0.7 q=45.4 size=       0KiB time=00:00:00.78 bitrate=   0.4kbits/s speed=0.00567x elapsed=0:02:18.11    \nframe=   97 fps=0.7 q=40.7 size=       0KiB time=00:00:00.79 bitrate=   0.4kbits/s speed=0.00571x elapsed=0:02:18.62    \nframe=   97 fps=0.7 q=40.7 size=       0KiB time=00:00:00.79 bitrate=   0.4kbits/s speed=0.00569x elapsed=0:02:19.15    \nframe=   98 fps=0.7 q=43.9 size=       0KiB time=00:00:00.80 bitrate=   0.4kbits/s speed=0.00573x elapsed=0:02:19.65    \nframe=   98 fps=0.7 q=43.9 size=       0KiB time=00:00:00.80 bitrate=   0.4kbits/s speed=0.00571x elapsed=0:02:20.17    \nframe=   99 fps=0.7 q=45.3 size=       0KiB time=00:00:00.80 bitrate=   0.4kbits/s speed=0.00575x elapsed=0:02:20.69    \nframe=   99 fps=0.7 q=45.3 size=       0KiB time=00:00:00.80 bitrate=   0.4kbits/s speed=0.00572x elapsed=0:02:21.21    \nframe=   99 fps=0.7 q=45.3 size=       0KiB time=00:00:00.80 bitrate=   0.4kbits/s speed=0.0057x elapsed=0:02:21.72    \nframe=  100 fps=0.7 q=44.5 size=       0KiB time=00:00:00.81 bitrate=   0.4kbits/s speed=0.00574x elapsed=0:02:22.24    \nframe=  100 fps=0.7 q=44.5 size=       0KiB time=00:00:00.81 bitrate=   0.4kbits/s speed=0.00572x elapsed=0:02:22.74    \nframe=  100 fps=0.7 q=44.5 size=       0KiB time=00:00:00.81 bitrate=   0.4kbits/s speed=0.0057x elapsed=0:02:23.26    \nframe=  100 fps=0.7 q=44.5 size=       0KiB time=00:00:00.81 bitrate=   0.4kbits/s speed=0.00568x elapsed=0:02:23.78    \nframe=  101 fps=0.7 q=44.6 size=       0KiB time=00:00:00.82 bitrate=   0.4kbits/s speed=0.00572x elapsed=0:02:24.30    \nframe=  102 fps=0.7 q=39.6 size=       0KiB time=00:00:00.83 bitrate=   0.4kbits/s speed=0.00575x elapsed=0:02:24.81    \nframe=  102 fps=0.7 q=39.6 size=       0KiB time=00:00:00.83 bitrate=   0.4kbits/s speed=0.00573x elapsed=0:02:25.33    \nframe=  102 fps=0.7 q=39.6 size=       0KiB time=00:00:00.83 bitrate=   0.4kbits/s speed=0.00571x elapsed=0:02:25.84    \nframe=  103 fps=0.7 q=43.4 size=       0KiB time=00:00:00.84 bitrate=   0.4kbits/s speed=0.00575x elapsed=0:02:26.36    \nframe=  104 fps=0.7 q=44.6 size=       0KiB time=00:00:00.85 bitrate=   0.4kbits/s speed=0.00579x elapsed=0:02:26.87    \nframe=  104 fps=0.7 q=44.6 size=       0KiB time=00:00:00.85 bitrate=   0.4kbits/s speed=0.00577x elapsed=0:02:27.39    \nframe=  104 fps=0.7 q=44.6 size=       0KiB time=00:00:00.85 bitrate=   0.4kbits/s speed=0.00575x elapsed=0:02:27.91    \nframe=  104 fps=0.7 q=44.6 size=       0KiB time=00:00:00.85 bitrate=   0.4kbits/s speed=0.00573x elapsed=0:02:28.42    \nframe=  104 fps=0.7 q=44.6 size=       0KiB time=00:00:00.85 bitrate=   0.4kbits/s speed=0.00571x elapsed=0:02:28.94    \nframe=  105 fps=0.7 q=44.4 size=       0KiB time=00:00:00.85 bitrate=   0.4kbits/s speed=0.00574x elapsed=0:02:29.47    \nframe=  105 fps=0.7 q=44.4 size=       0KiB time=00:00:00.85 bitrate=   0.4kbits/s speed=0.00572x elapsed=0:02:29.98    \nframe=  105 fps=0.7 q=44.4 size=       0KiB time=00:00:00.85 bitrate=   0.4kbits/s speed=0.0057x elapsed=0:02:30.50    \nframe=  105 fps=0.7 q=44.4 size=       0KiB time=00:00:00.85 bitrate=   0.4kbits/s speed=0.00568x elapsed=0:02:31.02    \nframe=  106 fps=0.7 q=44.4 size=       0KiB time=00:00:00.86 bitrate=   0.4kbits/s speed=0.00572x elapsed=0:02:31.54    \nframe=  106 fps=0.7 q=44.4 size=       0KiB time=00:00:00.86 bitrate=   0.4kbits/s speed=0.0057x elapsed=0:02:32.05    \nframe=  106 fps=0.7 q=44.4 size=       0KiB time=00:00:00.86 bitrate=   0.4kbits/s speed=0.00568x elapsed=0:02:32.56    \nframe=  107 fps=0.7 q=39.4 size=       0KiB time=00:00:00.87 bitrate=   0.4kbits/s speed=0.00572x elapsed=0:02:33.08    \nframe=  107 fps=0.7 q=39.4 size=       0KiB time=00:00:00.87 bitrate=   0.4kbits/s speed=0.0057x elapsed=0:02:33.59    \nframe=  108 fps=0.7 q=43.2 size=       0KiB time=00:00:00.88 bitrate=   0.4kbits/s speed=0.00573x elapsed=0:02:34.11    \nframe=  109 fps=0.7 q=44.5 size=       0KiB time=00:00:00.89 bitrate=   0.4kbits/s speed=0.00577x elapsed=0:02:34.62    \nframe=  109 fps=0.7 q=44.5 size=       0KiB time=00:00:00.89 bitrate=   0.4kbits/s speed=0.00575x elapsed=0:02:35.14    \nframe=  109 fps=0.7 q=44.5 size=       0KiB time=00:00:00.89 bitrate=   0.4kbits/s speed=0.00573x elapsed=0:02:35.66    \nframe=  109 fps=0.7 q=44.5 size=       0KiB time=00:00:00.89 bitrate=   0.4kbits/s speed=0.00571x elapsed=0:02:36.18    \nframe=  110 fps=0.7 q=44.4 size=       0KiB time=00:00:00.90 bitrate=   0.4kbits/s speed=0.00574x elapsed=0:02:36.68    \nframe=  110 fps=0.7 q=44.4 size=       0KiB time=00:00:00.90 bitrate=   0.4kbits/s speed=0.00572x elapsed=0:02:37.20    \nframe=  110 fps=0.7 q=44.4 size=       0KiB time=00:00:00.90 bitrate=   0.4kbits/s speed=0.00571x elapsed=0:02:37.71    \nframe=  111 fps=0.7 q=44.5 size=       0KiB time=00:00:00.90 bitrate=   0.4kbits/s speed=0.00574x elapsed=0:02:38.23    \nframe=  111 fps=0.7 q=44.5 size=       0KiB time=00:00:00.90 bitrate=   0.4kbits/s speed=0.00572x elapsed=0:02:38.76    \nframe=  111 fps=0.7 q=44.5 size=       0KiB time=00:00:00.90 bitrate=   0.4kbits/s speed=0.0057x elapsed=0:02:39.28    \nframe=  112 fps=0.7 q=39.4 size=       0KiB time=00:00:00.91 bitrate=   0.4kbits/s speed=0.00574x elapsed=0:02:39.80    \nframe=  113 fps=0.7 q=43.3 size=       0KiB time=00:00:00.92 bitrate=   0.4kbits/s speed=0.00577x elapsed=0:02:40.31    \nframe=  114 fps=0.7 q=44.5 size=       0KiB time=00:00:00.93 bitrate=   0.4kbits/s speed=0.0058x elapsed=0:02:40.84    \nframe=  114 fps=0.7 q=44.5 size=       0KiB time=00:00:00.93 bitrate=   0.4kbits/s speed=0.00578x elapsed=0:02:41.34    \nframe=  115 fps=0.7 q=44.4 size=       0KiB time=00:00:00.94 bitrate=   0.4kbits/s speed=0.00582x elapsed=0:02:41.86    \nframe=  115 fps=0.7 q=44.4 size=       0KiB time=00:00:00.94 bitrate=   0.4kbits/s speed=0.0058x elapsed=0:02:42.38    \nframe=  115 fps=0.7 q=44.4 size=       0KiB time=00:00:00.94 bitrate=   0.4kbits/s speed=0.00578x elapsed=0:02:42.88    \nframe=  115 fps=0.7 q=44.4 size=       0KiB time=00:00:00.94 bitrate=   0.4kbits/s speed=0.00576x elapsed=0:02:43.41    \nframe=  115 fps=0.7 q=44.4 size=       0KiB time=00:00:00.94 bitrate=   0.4kbits/s speed=0.00574x elapsed=0:02:43.92    \nframe=  116 fps=0.7 q=44.5 size=       0KiB time=00:00:00.95 bitrate=   0.4kbits/s speed=0.00578x elapsed=0:02:44.43    \nframe=  117 fps=0.7 q=39.0 size=       0KiB time=00:00:00.95 bitrate=   0.4kbits/s speed=0.00581x elapsed=0:02:44.96    \nframe=  118 fps=0.7 q=43.2 size=       0KiB time=00:00:00.96 bitrate=   0.4kbits/s speed=0.00584x elapsed=0:02:45.48    \nframe=  118 fps=0.7 q=43.2 size=       0KiB time=00:00:00.96 bitrate=   0.4kbits/s speed=0.00582x elapsed=0:02:45.98    \nframe=  118 fps=0.7 q=43.2 size=       0KiB time=00:00:00.96 bitrate=   0.4kbits/s speed=0.00581x elapsed=0:02:46.51    \nframe=  118 fps=0.7 q=43.2 size=       0KiB time=00:00:00.96 bitrate=   0.4kbits/s speed=0.00579x elapsed=0:02:47.03    \nframe=  119 fps=0.7 q=44.4 size=       0KiB time=00:00:00.97 bitrate=   0.4kbits/s speed=0.00582x elapsed=0:02:47.54    \nframe=  119 fps=0.7 q=44.4 size=       0KiB time=00:00:00.97 bitrate=   0.4kbits/s speed=0.0058x elapsed=0:02:48.06    \nframe=  119 fps=0.7 q=44.4 size=       0KiB time=00:00:00.97 bitrate=   0.4kbits/s speed=0.00578x elapsed=0:02:48.58    \nframe=  120 fps=0.7 q=44.4 size=       0KiB time=00:00:00.98 bitrate=   0.4kbits/s speed=0.00582x elapsed=0:02:49.09    \nframe=  120 fps=0.7 q=44.4 size=       0KiB time=00:00:00.98 bitrate=   0.4kbits/s speed=0.0058x elapsed=0:02:49.61    \nframe=  120 fps=0.7 q=44.4 size=       0KiB time=00:00:00.98 bitrate=   0.4kbits/s speed=0.00578x elapsed=0:02:50.13    \nframe=  120 fps=0.7 q=44.4 size=       0KiB time=00:00:00.98 bitrate=   0.4kbits/s speed=0.00576x elapsed=0:02:50.64    \nframe=  120 fps=0.7 q=44.4 size=       0KiB time=00:00:00.98 bitrate=   0.4kbits/s speed=0.00575x elapsed=0:02:51.15    \nframe=  121 fps=0.7 q=44.4 size=       0KiB time=00:00:00.99 bitrate=   0.4kbits/s speed=0.00578x elapsed=0:02:51.69    \nframe=  122 fps=0.7 q=38.2 size=       0KiB time=00:00:01.00 bitrate=   0.4kbits/s speed=0.00581x elapsed=0:02:52.20    \nframe=  123 fps=0.7 q=43.1 size=       0KiB time=00:00:01.00 bitrate=   0.3kbits/s speed=0.00584x elapsed=0:02:52.72    \nframe=  123 fps=0.7 q=43.1 size=       0KiB time=00:00:01.00 bitrate=   0.3kbits/s speed=0.00582x elapsed=0:02:53.24    \nframe=  124 fps=0.7 q=44.3 size=       0KiB time=00:00:01.01 bitrate=   0.3kbits/s speed=0.00585x elapsed=0:02:53.74    \nframe=  124 fps=0.7 q=44.3 size=       0KiB time=00:00:01.01 bitrate=   0.3kbits/s speed=0.00583x elapsed=0:02:54.26    \nframe=  124 fps=0.7 q=44.3 size=       0KiB time=00:00:01.01 bitrate=   0.3kbits/s speed=0.00582x elapsed=0:02:54.78    \nframe=  125 fps=0.7 q=43.6 size=       0KiB time=00:00:01.02 bitrate=   0.3kbits/s speed=0.00585x elapsed=0:02:55.30    \nframe=  125 fps=0.7 q=43.6 size=       0KiB time=00:00:01.02 bitrate=   0.3kbits/s speed=0.00583x elapsed=0:02:55.81    \nframe=  125 fps=0.7 q=43.6 size=       0KiB time=00:00:01.02 bitrate=   0.3kbits/s speed=0.00581x elapsed=0:02:56.32    \nframe=  125 fps=0.7 q=43.6 size=       0KiB time=00:00:01.02 bitrate=   0.3kbits/s speed=0.0058x elapsed=0:02:56.84    \nframe=  125 fps=0.7 q=43.6 size=       0KiB time=00:00:01.02 bitrate=   0.3kbits/s speed=0.00578x elapsed=0:02:57.36    \nframe=  126 fps=0.7 q=43.6 size=       0KiB time=00:00:01.03 bitrate=   0.3kbits/s speed=0.00581x elapsed=0:02:57.88    \nframe=  126 fps=0.7 q=43.6 size=       0KiB time=00:00:01.03 bitrate=   0.3kbits/s speed=0.00579x elapsed=0:02:58.41    \nframe=  127 fps=0.7 q=38.0 size=       0KiB time=00:00:01.04 bitrate=   0.3kbits/s speed=0.00582x elapsed=0:02:58.93    \nframe=  128 fps=0.7 q=43.0 size=       0KiB time=00:00:01.05 bitrate=   0.3kbits/s speed=0.00585x elapsed=0:02:59.43    \nframe=  128 fps=0.7 q=43.0 size=       0KiB time=00:00:01.05 bitrate=   0.3kbits/s speed=0.00583x elapsed=0:02:59.96    \nframe=  128 fps=0.7 q=43.0 size=       0KiB time=00:00:01.05 bitrate=   0.3kbits/s speed=0.00582x elapsed=0:03:00.47    \nframe=  129 fps=0.7 q=44.3 size=       0KiB time=00:00:01.05 bitrate=   0.3kbits/s speed=0.00585x elapsed=0:03:00.98    \nframe=  129 fps=0.7 q=44.3 size=       0KiB time=00:00:01.05 bitrate=   0.3kbits/s speed=0.00583x elapsed=0:03:01.50    \nframe=  129 fps=0.7 q=44.3 size=       0KiB time=00:00:01.05 bitrate=   0.3kbits/s speed=0.00581x elapsed=0:03:02.01    \nframe=  130 fps=0.7 q=44.2 size=       0KiB time=00:00:01.06 bitrate=   0.3kbits/s speed=0.00584x elapsed=0:03:02.53    \nframe=  130 fps=0.7 q=44.2 size=       0KiB time=00:00:01.06 bitrate=   0.3kbits/s speed=0.00583x elapsed=0:03:03.04    \nframe=  130 fps=0.7 q=44.2 size=       0KiB time=00:00:01.06 bitrate=   0.3kbits/s speed=0.00581x elapsed=0:03:03.56    \nframe=  130 fps=0.7 q=44.2 size=       0KiB time=00:00:01.06 bitrate=   0.3kbits/s speed=0.00579x elapsed=0:03:04.08    \nframe=  131 fps=0.7 q=44.5 size=       0KiB time=00:00:01.07 bitrate=   0.3kbits/s speed=0.00582x elapsed=0:03:04.59    \nframe=  132 fps=0.7 q=38.5 size=       0KiB time=00:00:01.08 bitrate=   0.3kbits/s speed=0.00585x elapsed=0:03:05.10    \nframe=  132 fps=0.7 q=38.5 size=       0KiB time=00:00:01.08 bitrate=   0.3kbits/s speed=0.00584x elapsed=0:03:05.62    \nframe=  132 fps=0.7 q=38.5 size=       0KiB time=00:00:01.08 bitrate=   0.3kbits/s speed=0.00582x elapsed=0:03:06.15    \nframe=  133 fps=0.7 q=42.5 size=       0KiB time=00:00:01.09 bitrate=   0.3kbits/s speed=0.00585x elapsed=0:03:06.67    \nframe=  133 fps=0.7 q=42.5 size=       0KiB time=00:00:01.09 bitrate=   0.3kbits/s speed=0.00583x elapsed=0:03:07.18    \nframe=  134 fps=0.7 q=43.6 size=       0KiB time=00:00:01.10 bitrate=   0.3kbits/s speed=0.00586x elapsed=0:03:07.70    \nframe=  134 fps=0.7 q=43.6 size=       0KiB time=00:00:01.10 bitrate=   0.3kbits/s speed=0.00584x elapsed=0:03:08.21    \nframe=  134 fps=0.7 q=43.6 size=       0KiB time=00:00:01.10 bitrate=   0.3kbits/s speed=0.00583x elapsed=0:03:08.73    \nframe=  135 fps=0.7 q=43.6 size=       0KiB time=00:00:01.10 bitrate=   0.3kbits/s speed=0.00586x elapsed=0:03:09.25    \nframe=  135 fps=0.7 q=43.6 size=       0KiB time=00:00:01.10 bitrate=   0.3kbits/s speed=0.00584x elapsed=0:03:09.77    \nframe=  136 fps=0.7 q=43.6 size=       0KiB time=00:00:01.11 bitrate=   0.3kbits/s speed=0.00587x elapsed=0:03:10.28    \nframe=  136 fps=0.7 q=43.6 size=       0KiB time=00:00:01.11 bitrate=   0.3kbits/s speed=0.00585x elapsed=0:03:10.79    \nframe=  137 fps=0.7 q=37.8 size=       0KiB time=00:00:01.12 bitrate=   0.3kbits/s speed=0.00588x elapsed=0:03:11.31    \nframe=  137 fps=0.7 q=37.8 size=       0KiB time=00:00:01.12 bitrate=   0.3kbits/s speed=0.00586x elapsed=0:03:11.83    \nframe=  137 fps=0.7 q=37.8 size=       0KiB time=00:00:01.12 bitrate=   0.3kbits/s speed=0.00585x elapsed=0:03:12.34    \nframe=  138 fps=0.7 q=42.2 size=     256KiB time=00:00:01.13 bitrate=1850.7kbits/s speed=0.00588x elapsed=0:03:12.87    \nframe=  138 fps=0.7 q=42.2 size=     256KiB time=00:00:01.13 bitrate=1850.7kbits/s speed=0.00586x elapsed=0:03:13.38    \nframe=  139 fps=0.7 q=43.5 size=     256KiB time=00:00:01.14 bitrate=1837.2kbits/s speed=0.00589x elapsed=0:03:13.89    \nframe=  139 fps=0.7 q=43.5 size=     256KiB time=00:00:01.14 bitrate=1837.2kbits/s speed=0.00587x elapsed=0:03:14.40    \nframe=  139 fps=0.7 q=43.5 size=     256KiB time=00:00:01.14 bitrate=1837.2kbits/s speed=0.00586x elapsed=0:03:14.92    \nframe=  140 fps=0.7 q=43.2 size=     256KiB time=00:00:01.15 bitrate=1823.9kbits/s speed=0.00588x elapsed=0:03:15.44    \nframe=  140 fps=0.7 q=43.2 size=     256KiB time=00:00:01.15 bitrate=1823.9kbits/s speed=0.00587x elapsed=0:03:15.95    \nframe=  141 fps=0.7 q=43.4 size=     256KiB time=00:00:01.15 bitrate=1810.8kbits/s speed=0.0059x elapsed=0:03:16.46    \nframe=  141 fps=0.7 q=43.4 size=     256KiB time=00:00:01.15 bitrate=1810.8kbits/s speed=0.00588x elapsed=0:03:16.98    \nframe=  142 fps=0.7 q=37.0 size=     256KiB time=00:00:01.16 bitrate=1797.9kbits/s speed=0.00591x elapsed=0:03:17.49    \nframe=  142 fps=0.7 q=37.0 size=     256KiB time=00:00:01.16 bitrate=1797.9kbits/s speed=0.00589x elapsed=0:03:18.02    \nframe=  142 fps=0.7 q=37.0 size=     256KiB time=00:00:01.16 bitrate=1797.9kbits/s speed=0.00588x elapsed=0:03:18.53    \nframe=  143 fps=0.7 q=42.2 size=     256KiB time=00:00:01.17 bitrate=1785.1kbits/s speed=0.0059x elapsed=0:03:19.05    \nframe=  144 fps=0.7 q=43.3 size=     256KiB time=00:00:01.18 bitrate=1772.5kbits/s speed=0.00593x elapsed=0:03:19.56    \nframe=  144 fps=0.7 q=43.3 size=     256KiB time=00:00:01.18 bitrate=1772.5kbits/s speed=0.00591x elapsed=0:03:20.08    \nframe=  144 fps=0.7 q=43.3 size=     256KiB time=00:00:01.18 bitrate=1772.5kbits/s speed=0.0059x elapsed=0:03:20.60    \nframe=  144 fps=0.7 q=43.3 size=     256KiB time=00:00:01.18 bitrate=1772.5kbits/s speed=0.00588x elapsed=0:03:21.11    \nframe=  145 fps=0.7 q=43.1 size=     256KiB time=00:00:01.19 bitrate=1760.1kbits/s speed=0.00591x elapsed=0:03:21.63    \nframe=  145 fps=0.7 q=43.1 size=     256KiB time=00:00:01.19 bitrate=1760.1kbits/s speed=0.0059x elapsed=0:03:22.14    \nframe=  145 fps=0.7 q=43.1 size=     256KiB time=00:00:01.19 bitrate=1760.1kbits/s speed=0.00588x elapsed=0:03:22.66    \nframe=  146 fps=0.7 q=42.7 size=     256KiB time=00:00:01.20 bitrate=1747.9kbits/s speed=0.00591x elapsed=0:03:23.17    \nframe=  146 fps=0.7 q=42.7 size=     256KiB time=00:00:01.20 bitrate=1747.9kbits/s speed=0.00589x elapsed=0:03:23.68    \nframe=  147 fps=0.7 q=36.5 size=     256KiB time=00:00:01.20 bitrate=1735.9kbits/s speed=0.00592x elapsed=0:03:24.20    \nframe=  148 fps=0.7 q=42.0 size=     256KiB time=00:00:01.21 bitrate=1724.0kbits/s speed=0.00594x elapsed=0:03:24.72    \nframe=  148 fps=0.7 q=42.0 size=     256KiB time=00:00:01.21 bitrate=1724.0kbits/s speed=0.00593x elapsed=0:03:25.24    \nframe=  149 fps=0.7 q=42.5 size=     256KiB time=00:00:01.22 bitrate=1712.2kbits/s speed=0.00595x elapsed=0:03:25.75    \nframe=  149 fps=0.7 q=42.5 size=     256KiB time=00:00:01.22 bitrate=1712.2kbits/s speed=0.00594x elapsed=0:03:26.27    \nframe=  150 fps=0.7 q=42.3 size=     256KiB time=00:00:01.23 bitrate=1700.7kbits/s speed=0.00596x elapsed=0:03:26.78    \nframe=  150 fps=0.7 q=42.3 size=     256KiB time=00:00:01.23 bitrate=1700.7kbits/s speed=0.00595x elapsed=0:03:27.30    \nframe=  150 fps=0.7 q=42.3 size=     256KiB time=00:00:01.23 bitrate=1700.7kbits/s speed=0.00593x elapsed=0:03:27.82    \nframe=  150 fps=0.7 q=42.3 size=     256KiB time=00:00:01.23 bitrate=1700.7kbits/s speed=0.00592x elapsed=0:03:28.33    \nframe=  150 fps=0.7 q=42.3 size=     256KiB time=00:00:01.23 bitrate=1700.7kbits/s speed=0.00591x elapsed=0:03:28.84    \nframe=  151 fps=0.7 q=42.3 size=     256KiB time=00:00:01.24 bitrate=1689.3kbits/s speed=0.00593x elapsed=0:03:29.36    \nframe=  152 fps=0.7 q=36.3 size=     256KiB time=00:00:01.25 bitrate=1678.0kbits/s speed=0.00596x elapsed=0:03:29.88    \nframe=  152 fps=0.7 q=36.3 size=     256KiB time=00:00:01.25 bitrate=1678.0kbits/s speed=0.00594x elapsed=0:03:30.40    \nframe=  153 fps=0.7 q=41.3 size=     256KiB time=00:00:01.25 bitrate=1666.9kbits/s speed=0.00597x elapsed=0:03:30.90    \nframe=  153 fps=0.7 q=41.3 size=     256KiB time=00:00:01.25 bitrate=1666.9kbits/s speed=0.00595x elapsed=0:03:31.43    \nframe=  154 fps=0.7 q=42.2 size=     256KiB time=00:00:01.26 bitrate=1655.9kbits/s speed=0.00598x elapsed=0:03:31.94    \nframe=  154 fps=0.7 q=42.2 size=     256KiB time=00:00:01.26 bitrate=1655.9kbits/s speed=0.00596x elapsed=0:03:32.45    \nframe=  154 fps=0.7 q=42.2 size=     256KiB time=00:00:01.26 bitrate=1655.9kbits/s speed=0.00595x elapsed=0:03:32.97    \nframe=  155 fps=0.7 q=42.2 size=     256KiB time=00:00:01.27 bitrate=1645.1kbits/s speed=0.00597x elapsed=0:03:33.48    \nframe=  155 fps=0.7 q=42.2 size=     256KiB time=00:00:01.27 bitrate=1645.1kbits/s speed=0.00596x elapsed=0:03:34.00    \nframe=  155 fps=0.7 q=42.2 size=     256KiB time=00:00:01.27 bitrate=1645.1kbits/s speed=0.00594x elapsed=0:03:34.51    \nframe=  156 fps=0.7 q=42.4 size=     256KiB time=00:00:01.28 bitrate=1634.4kbits/s speed=0.00597x elapsed=0:03:35.02    \nframe=  156 fps=0.7 q=42.4 size=     256KiB time=00:00:01.28 bitrate=1634.4kbits/s speed=0.00595x elapsed=0:03:35.55    \nframe=  157 fps=0.7 q=36.5 size=     256KiB time=00:00:01.29 bitrate=1623.9kbits/s speed=0.00598x elapsed=0:03:36.06    \nframe=  157 fps=0.7 q=36.5 size=     256KiB time=00:00:01.29 bitrate=1623.9kbits/s speed=0.00596x elapsed=0:03:36.58    \nframe=  158 fps=0.7 q=41.2 size=     256KiB time=00:00:01.30 bitrate=1613.5kbits/s speed=0.00599x elapsed=0:03:37.10    \nframe=  158 fps=0.7 q=41.2 size=     256KiB time=00:00:01.30 bitrate=1613.5kbits/s speed=0.00597x elapsed=0:03:37.62    \nframe=  159 fps=0.7 q=41.4 size=     256KiB time=00:00:01.30 bitrate=1603.2kbits/s speed=0.006x elapsed=0:03:38.12    \nframe=  159 fps=0.7 q=41.4 size=     256KiB time=00:00:01.30 bitrate=1603.2kbits/s speed=0.00598x elapsed=0:03:38.65    \nframe=  159 fps=0.7 q=41.4 size=     256KiB time=00:00:01.30 bitrate=1603.2kbits/s speed=0.00597x elapsed=0:03:39.16    \nframe=  160 fps=0.7 q=41.5 size=     256KiB time=00:00:01.31 bitrate=1593.0kbits/s speed=0.00599x elapsed=0:03:39.68    \nframe=  160 fps=0.7 q=41.5 size=     256KiB time=00:00:01.31 bitrate=1593.0kbits/s speed=0.00598x elapsed=0:03:40.18    \nframe=  160 fps=0.7 q=41.5 size=     256KiB time=00:00:01.31 bitrate=1593.0kbits/s speed=0.00597x elapsed=0:03:40.71    \nframe=  161 fps=0.7 q=41.4 size=     256KiB time=00:00:01.32 bitrate=1583.0kbits/s speed=0.00599x elapsed=0:03:41.21    \nframe=  162 fps=0.7 q=35.9 size=     256KiB time=00:00:01.33 bitrate=1573.1kbits/s speed=0.00601x elapsed=0:03:41.73    \nframe=  162 fps=0.7 q=35.9 size=     256KiB time=00:00:01.33 bitrate=1573.1kbits/s speed=0.006x elapsed=0:03:42.25    \nframe=  164 fps=0.7 q=41.4 size=     256KiB time=00:00:01.35 bitrate=1553.7kbits/s speed=0.00606x elapsed=0:03:42.76    \nframe=  164 fps=0.7 q=41.4 size=     256KiB time=00:00:01.35 bitrate=1553.7kbits/s speed=0.00605x elapsed=0:03:43.27    \nframe=  165 fps=0.7 q=41.5 size=     256KiB time=00:00:01.35 bitrate=1544.2kbits/s speed=0.00607x elapsed=0:03:43.80    \nframe=  166 fps=0.7 q=41.4 size=     256KiB time=00:00:01.36 bitrate=1534.8kbits/s speed=0.00609x elapsed=0:03:44.32    \nframe=  166 fps=0.7 q=41.4 size=     256KiB time=00:00:01.36 bitrate=1534.8kbits/s speed=0.00608x elapsed=0:03:44.83    \nframe=  167 fps=0.7 q=35.8 size=     256KiB time=00:00:01.37 bitrate=1525.5kbits/s speed=0.0061x elapsed=0:03:45.34    \nframe=  168 fps=0.7 q=40.7 size=     256KiB time=00:00:01.38 bitrate=1516.3kbits/s speed=0.00612x elapsed=0:03:45.85    \nframe=  169 fps=0.7 q=41.4 size=     256KiB time=00:00:01.39 bitrate=1507.2kbits/s speed=0.00615x elapsed=0:03:46.38    \nframe=  169 fps=0.7 q=41.4 size=     256KiB time=00:00:01.39 bitrate=1507.2kbits/s speed=0.00613x elapsed=0:03:46.89    \nframe=  169 fps=0.7 q=41.4 size=     256KiB time=00:00:01.39 bitrate=1507.2kbits/s speed=0.00612x elapsed=0:03:47.40    \nframe=  169 fps=0.7 q=41.4 size=     256KiB time=00:00:01.39 bitrate=1507.2kbits/s speed=0.00611x elapsed=0:03:47.92    \nframe=  169 fps=0.7 q=41.4 size=     256KiB time=00:00:01.39 bitrate=1507.2kbits/s speed=0.00609x elapsed=0:03:48.43    \nframe=  170 fps=0.7 q=41.0 size=     256KiB time=00:00:01.40 bitrate=1498.2kbits/s speed=0.00611x elapsed=0:03:48.95    \nframe=  170 fps=0.7 q=41.0 size=     256KiB time=00:00:01.40 bitrate=1498.2kbits/s speed=0.0061x elapsed=0:03:49.46    \nframe=  170 fps=0.7 q=41.0 size=     256KiB time=00:00:01.40 bitrate=1498.2kbits/s speed=0.00609x elapsed=0:03:49.98    \nframe=  170 fps=0.7 q=41.0 size=     256KiB time=00:00:01.40 bitrate=1498.2kbits/s speed=0.00607x elapsed=0:03:50.50    \nframe=  171 fps=0.7 q=40.6 size=     256KiB time=00:00:01.40 bitrate=1489.4kbits/s speed=0.0061x elapsed=0:03:51.01    \nframe=  171 fps=0.7 q=40.6 size=     256KiB time=00:00:01.40 bitrate=1489.4kbits/s speed=0.00608x elapsed=0:03:51.53    \nframe=  172 fps=0.7 q=35.4 size=     256KiB time=00:00:01.41 bitrate=1480.6kbits/s speed=0.0061x elapsed=0:03:52.05    \nframe=  172 fps=0.7 q=35.4 size=     256KiB time=00:00:01.41 bitrate=1480.6kbits/s speed=0.00609x elapsed=0:03:52.56    \nframe=  173 fps=0.7 q=40.6 size=     256KiB time=00:00:01.42 bitrate=1471.9kbits/s speed=0.00611x elapsed=0:03:53.08    \nframe=  174 fps=0.7 q=41.5 size=     256KiB time=00:00:01.43 bitrate=1463.4kbits/s speed=0.00614x elapsed=0:03:53.59    \nframe=  174 fps=0.7 q=41.5 size=     256KiB time=00:00:01.43 bitrate=1463.4kbits/s speed=0.00612x elapsed=0:03:54.11    \nframe=  174 fps=0.7 q=41.5 size=     256KiB time=00:00:01.43 bitrate=1463.4kbits/s speed=0.00611x elapsed=0:03:54.63    \nframe=  174 fps=0.7 q=41.5 size=     256KiB time=00:00:01.43 bitrate=1463.4kbits/s speed=0.0061x elapsed=0:03:55.13    \nframe=  175 fps=0.7 q=40.6 size=     256KiB time=00:00:01.44 bitrate=1454.9kbits/s speed=0.00612x elapsed=0:03:55.66    \nframe=  175 fps=0.7 q=40.6 size=     256KiB time=00:00:01.44 bitrate=1454.9kbits/s speed=0.0061x elapsed=0:03:56.17    \nframe=  175 fps=0.7 q=40.6 size=     256KiB time=00:00:01.44 bitrate=1454.9kbits/s speed=0.00609x elapsed=0:03:56.68    \nframe=  176 fps=0.7 q=40.6 size=     256KiB time=00:00:01.45 bitrate=1446.6kbits/s speed=0.00611x elapsed=0:03:57.20    \nframe=  176 fps=0.7 q=40.6 size=     256KiB time=00:00:01.45 bitrate=1446.6kbits/s speed=0.0061x elapsed=0:03:57.72    \nframe=  176 fps=0.7 q=40.6 size=     256KiB time=00:00:01.45 bitrate=1446.6kbits/s speed=0.00609x elapsed=0:03:58.23    \nframe=  178 fps=0.7 q=40.4 size=     256KiB time=00:00:01.46 bitrate=1430.1kbits/s speed=0.00614x elapsed=0:03:58.76    \nframe=  178 fps=0.7 q=40.4 size=     256KiB time=00:00:01.46 bitrate=1430.1kbits/s speed=0.00613x elapsed=0:03:59.28    \nframe=  178 fps=0.7 q=40.4 size=     256KiB time=00:00:01.46 bitrate=1430.1kbits/s speed=0.00612x elapsed=0:03:59.80    \nframe=  179 fps=0.7 q=41.4 size=     256KiB time=00:00:01.47 bitrate=1422.0kbits/s speed=0.00614x elapsed=0:04:00.31    \nframe=  179 fps=0.7 q=41.4 size=     256KiB time=00:00:01.47 bitrate=1422.0kbits/s speed=0.00612x elapsed=0:04:00.82    \nframe=  179 fps=0.7 q=41.4 size=     256KiB time=00:00:01.47 bitrate=1422.0kbits/s speed=0.00611x elapsed=0:04:01.34    \nframe=  180 fps=0.7 q=40.7 size=     256KiB time=00:00:01.48 bitrate=1414.0kbits/s speed=0.00613x elapsed=0:04:01.86    \nframe=  180 fps=0.7 q=40.7 size=     256KiB time=00:00:01.48 bitrate=1414.0kbits/s speed=0.00612x elapsed=0:04:02.38    \nframe=  180 fps=0.7 q=40.7 size=     256KiB time=00:00:01.48 bitrate=1414.0kbits/s speed=0.00611x elapsed=0:04:02.89    \nframe=  181 fps=0.7 q=40.5 size=     256KiB time=00:00:01.49 bitrate=1406.1kbits/s speed=0.00613x elapsed=0:04:03.41    \nframe=  181 fps=0.7 q=40.5 size=     256KiB time=00:00:01.49 bitrate=1406.1kbits/s speed=0.00612x elapsed=0:04:03.92    \nframe=  181 fps=0.7 q=40.5 size=     256KiB time=00:00:01.49 bitrate=1406.1kbits/s speed=0.0061x elapsed=0:04:04.44    \nframe=  181 fps=0.7 q=40.5 size=     256KiB time=00:00:01.49 bitrate=1406.1kbits/s speed=0.00609x elapsed=0:04:04.95    \nframe=  182 fps=0.7 q=36.6 size=     256KiB time=00:00:01.50 bitrate=1398.3kbits/s speed=0.00611x elapsed=0:04:05.46    \nframe=  182 fps=0.7 q=36.6 size=     256KiB time=00:00:01.50 bitrate=1398.3kbits/s speed=0.0061x elapsed=0:04:05.98    \nframe=  182 fps=0.7 q=36.6 size=     256KiB time=00:00:01.50 bitrate=1398.3kbits/s speed=0.00609x elapsed=0:04:06.49    \nframe=  183 fps=0.7 q=40.5 size=     256KiB time=00:00:01.50 bitrate=1390.6kbits/s speed=0.00611x elapsed=0:04:07.02    \nframe=  183 fps=0.7 q=40.5 size=     256KiB time=00:00:01.50 bitrate=1390.6kbits/s speed=0.00609x elapsed=0:04:07.55    \nframe=  183 fps=0.7 q=40.5 size=     256KiB time=00:00:01.50 bitrate=1390.6kbits/s speed=0.00608x elapsed=0:04:08.06    \nframe=  183 fps=0.7 q=40.5 size=     256KiB time=00:00:01.50 bitrate=1390.6kbits/s speed=0.00607x elapsed=0:04:08.60    \nframe=  183 fps=0.7 q=40.5 size=     256KiB time=00:00:01.50 bitrate=1390.6kbits/s speed=0.00605x elapsed=0:04:09.11    \nframe=  184 fps=0.7 q=41.3 size=     256KiB time=00:00:01.50 bitrate=1390.6kbits/s speed=0.00604x elapsed=0:04:09.63    \nframe=  184 fps=0.7 q=41.3 size=     256KiB time=00:00:01.51 bitrate=1383.0kbits/s speed=0.00606x elapsed=0:04:10.16    \nframe=  184 fps=0.7 q=41.3 size=     256KiB time=00:00:01.51 bitrate=1383.0kbits/s speed=0.00605x elapsed=0:04:10.67    \nframe=  184 fps=0.7 q=41.3 size=     256KiB time=00:00:01.51 bitrate=1383.0kbits/s speed=0.00604x elapsed=0:04:11.18    \nframe=  184 fps=0.7 q=41.3 size=     256KiB time=00:00:01.51 bitrate=1383.0kbits/s speed=0.00603x elapsed=0:04:11.70    \nframe=  184 fps=0.7 q=41.3 size=     256KiB time=00:00:01.51 bitrate=1383.0kbits/s speed=0.00601x elapsed=0:04:12.21    \nframe=  184 fps=0.7 q=41.3 size=     256KiB time=00:00:01.51 bitrate=1383.0kbits/s speed=0.006x elapsed=0:04:12.73    \nframe=  184 fps=0.7 q=41.3 size=     256KiB time=00:00:01.51 bitrate=1383.0kbits/s speed=0.00599x elapsed=0:04:13.25    \nframe=  185 fps=0.7 q=40.5 size=     256KiB time=00:00:01.52 bitrate=1375.4kbits/s speed=0.00601x elapsed=0:04:13.78    \nframe=  185 fps=0.7 q=40.5 size=     256KiB time=00:00:01.52 bitrate=1375.4kbits/s speed=0.006x elapsed=0:04:14.30    \nframe=  185 fps=0.7 q=40.5 size=     256KiB time=00:00:01.52 bitrate=1375.4kbits/s speed=0.00598x elapsed=0:04:14.84    \nframe=  185 fps=0.7 q=40.5 size=     256KiB time=00:00:01.52 bitrate=1375.4kbits/s speed=0.00597x elapsed=0:04:15.35    \nframe=  185 fps=0.7 q=40.5 size=     256KiB time=00:00:01.52 bitrate=1375.4kbits/s speed=0.00596x elapsed=0:04:15.88    \nframe=  185 fps=0.7 q=40.5 size=     256KiB time=00:00:01.52 bitrate=1375.4kbits/s speed=0.00595x elapsed=0:04:16.41    \nframe=  185 fps=0.7 q=40.5 size=     256KiB time=00:00:01.52 bitrate=1375.4kbits/s speed=0.00594x elapsed=0:04:16.92    \nframe=  185 fps=0.7 q=40.5 size=     256KiB time=00:00:01.52 bitrate=1375.4kbits/s speed=0.00592x elapsed=0:04:17.45    \nframe=  186 fps=0.7 q=40.3 size=     256KiB time=00:00:01.53 bitrate=1367.9kbits/s speed=0.00594x elapsed=0:04:17.98    \nframe=  186 fps=0.7 q=40.3 size=     256KiB time=00:00:01.53 bitrate=1367.9kbits/s speed=0.00593x elapsed=0:04:18.50    \nframe=  186 fps=0.7 q=40.3 size=     256KiB time=00:00:01.53 bitrate=1367.9kbits/s speed=0.00592x elapsed=0:04:19.01    \nframe=  186 fps=0.7 q=40.3 size=     256KiB time=00:00:01.53 bitrate=1367.9kbits/s speed=0.00591x elapsed=0:04:19.54    \nframe=  186 fps=0.7 q=40.3 size=     256KiB time=00:00:01.53 bitrate=1367.9kbits/s speed=0.0059x elapsed=0:04:20.06    \nframe=  186 fps=0.7 q=40.3 size=     256KiB time=00:00:01.53 bitrate=1367.9kbits/s speed=0.00588x elapsed=0:04:20.58    \nframe=  186 fps=0.7 q=40.3 size=     256KiB time=00:00:01.53 bitrate=1367.9kbits/s speed=0.00587x elapsed=0:04:21.09    \nframe=  186 fps=0.7 q=40.3 size=     256KiB time=00:00:01.53 bitrate=1367.9kbits/s speed=0.00586x elapsed=0:04:21.61    \nframe=  187 fps=0.7 q=35.3 size=     256KiB time=00:00:01.54 bitrate=1360.5kbits/s speed=0.00588x elapsed=0:04:22.13    \nframe=  188 fps=0.7 q=40.4 size=     256KiB time=00:00:01.55 bitrate=1353.2kbits/s speed=0.0059x elapsed=0:04:22.65    \nframe=  189 fps=0.7 q=40.8 size=     256KiB time=00:00:01.55 bitrate=1346.0kbits/s speed=0.00592x elapsed=0:04:23.16    \nframe=  189 fps=0.7 q=40.8 size=     256KiB time=00:00:01.55 bitrate=1346.0kbits/s speed=0.00591x elapsed=0:04:23.67    \nframe=  189 fps=0.7 q=40.8 size=     256KiB time=00:00:01.55 bitrate=1346.0kbits/s speed=0.0059x elapsed=0:04:24.18    \nframe=  189 fps=0.7 q=40.8 size=     256KiB time=00:00:01.55 bitrate=1346.0kbits/s speed=0.00589x elapsed=0:04:24.70    \nframe=  189 fps=0.7 q=40.8 size=     256KiB time=00:00:01.55 bitrate=1346.0kbits/s speed=0.00588x elapsed=0:04:25.22    \nframe=  190 fps=0.7 q=40.7 size=     256KiB time=00:00:01.56 bitrate=1338.8kbits/s speed=0.0059x elapsed=0:04:25.74    \nframe=  190 fps=0.7 q=40.7 size=     256KiB time=00:00:01.56 bitrate=1338.8kbits/s speed=0.00588x elapsed=0:04:26.26    \nframe=  191 fps=0.7 q=41.0 size=     256KiB time=00:00:01.57 bitrate=1331.7kbits/s speed=0.0059x elapsed=0:04:26.78    \nframe=  192 fps=0.7 q=35.9 size=     256KiB time=00:00:01.58 bitrate=1324.7kbits/s speed=0.00592x elapsed=0:04:27.30    \nframe=  192 fps=0.7 q=35.9 size=     256KiB time=00:00:01.58 bitrate=1324.7kbits/s speed=0.00591x elapsed=0:04:27.81    \nframe=  193 fps=0.7 q=40.3 size=     256KiB time=00:00:01.59 bitrate=1317.8kbits/s speed=0.00593x elapsed=0:04:28.33    \nframe=  193 fps=0.7 q=40.3 size=     256KiB time=00:00:01.59 bitrate=1317.8kbits/s speed=0.00592x elapsed=0:04:28.84    \nframe=  194 fps=0.7 q=41.4 size=     256KiB time=00:00:01.60 bitrate=1310.9kbits/s speed=0.00594x elapsed=0:04:29.36    \nframe=  195 fps=0.7 q=40.8 size=     256KiB time=00:00:01.60 bitrate=1304.1kbits/s speed=0.00596x elapsed=0:04:29.88    \nframe=  195 fps=0.7 q=40.8 size=     256KiB time=00:00:01.60 bitrate=1304.1kbits/s speed=0.00595x elapsed=0:04:30.38    \nframe=  195 fps=0.7 q=40.8 size=     256KiB time=00:00:01.60 bitrate=1304.1kbits/s speed=0.00594x elapsed=0:04:30.91    \nframe=  195 fps=0.7 q=40.8 size=     256KiB time=00:00:01.60 bitrate=1304.1kbits/s speed=0.00593x elapsed=0:04:31.43    \nframe=  196 fps=0.7 q=40.7 size=     256KiB time=00:00:01.61 bitrate=1297.4kbits/s speed=0.00594x elapsed=0:04:31.93    \nframe=  197 fps=0.7 q=35.4 size=     256KiB time=00:00:01.62 bitrate=1290.8kbits/s speed=0.00596x elapsed=0:04:32.45    \nframe=  198 fps=0.7 q=40.2 size=     256KiB time=00:00:01.63 bitrate=1284.2kbits/s speed=0.00598x elapsed=0:04:32.97    \nframe=  199 fps=0.7 q=41.5 size=     256KiB time=00:00:01.64 bitrate=1277.7kbits/s speed=0.006x elapsed=0:04:33.48    \nframe=  199 fps=0.7 q=41.5 size=     256KiB time=00:00:01.64 bitrate=1277.7kbits/s speed=0.00599x elapsed=0:04:34.00    \nframe=  199 fps=0.7 q=41.5 size=     256KiB time=00:00:01.64 bitrate=1277.7kbits/s speed=0.00598x elapsed=0:04:34.51    \nframe=  200 fps=0.7 q=40.9 size=     256KiB time=00:00:01.65 bitrate=1271.2kbits/s speed=0.006x elapsed=0:04:35.03    \nframe=  200 fps=0.7 q=40.9 size=     256KiB time=00:00:01.65 bitrate=1271.2kbits/s speed=0.00599x elapsed=0:04:35.55    \nframe=  200 fps=0.7 q=40.9 size=     256KiB time=00:00:01.65 bitrate=1271.2kbits/s speed=0.00598x elapsed=0:04:36.06    \nframe=  200 fps=0.7 q=40.9 size=     256KiB time=00:00:01.65 bitrate=1271.2kbits/s speed=0.00597x elapsed=0:04:36.58    \nframe=  200 fps=0.7 q=40.9 size=     256KiB time=00:00:01.65 bitrate=1271.2kbits/s speed=0.00595x elapsed=0:04:37.10    \nframe=  201 fps=0.7 q=40.7 size=     256KiB time=00:00:01.65 bitrate=1264.8kbits/s speed=0.00597x elapsed=0:04:37.61    \nframe=  202 fps=0.7 q=35.6 size=     256KiB time=00:00:01.66 bitrate=1258.5kbits/s speed=0.00599x elapsed=0:04:38.12    \nframe=  203 fps=0.7 q=40.3 size=     256KiB time=00:00:01.67 bitrate=1252.2kbits/s speed=0.00601x elapsed=0:04:38.65    \nframe=  203 fps=0.7 q=40.3 size=     256KiB time=00:00:01.67 bitrate=1252.2kbits/s speed=0.006x elapsed=0:04:39.16    \nframe=  204 fps=0.7 q=41.4 size=     256KiB time=00:00:01.68 bitrate=1246.0kbits/s speed=0.00602x elapsed=0:04:39.67    \nframe=  205 fps=0.7 q=40.7 size=     256KiB time=00:00:01.69 bitrate=1239.9kbits/s speed=0.00604x elapsed=0:04:40.19    \nframe=  205 fps=0.7 q=40.7 size=     256KiB time=00:00:01.69 bitrate=1239.9kbits/s speed=0.00603x elapsed=0:04:40.71    \nframe=  205 fps=0.7 q=40.7 size=     256KiB time=00:00:01.69 bitrate=1239.9kbits/s speed=0.00602x elapsed=0:04:41.22    \nframe=  205 fps=0.7 q=40.7 size=     256KiB time=00:00:01.69 bitrate=1239.9kbits/s speed=0.006x elapsed=0:04:41.74    \nframe=  206 fps=0.7 q=40.5 size=     256KiB time=00:00:01.70 bitrate=1233.8kbits/s speed=0.00602x elapsed=0:04:42.26    \nframe=  206 fps=0.7 q=40.5 size=     256KiB time=00:00:01.70 bitrate=1233.8kbits/s speed=0.00601x elapsed=0:04:42.78    \nframe=  207 fps=0.7 q=35.7 size=     256KiB time=00:00:01.70 bitrate=1227.8kbits/s speed=0.00603x elapsed=0:04:43.30    \nframe=  208 fps=0.7 q=40.6 size=     256KiB time=00:00:01.71 bitrate=1221.8kbits/s speed=0.00605x elapsed=0:04:43.81    \nframe=  209 fps=0.7 q=41.4 size=     256KiB time=00:00:01.72 bitrate=1215.9kbits/s speed=0.00607x elapsed=0:04:44.33    \nframe=  209 fps=0.7 q=41.4 size=     256KiB time=00:00:01.72 bitrate=1215.9kbits/s speed=0.00606x elapsed=0:04:44.84    \nframe=  210 fps=0.7 q=40.9 size=     256KiB time=00:00:01.73 bitrate=1210.1kbits/s speed=0.00607x elapsed=0:04:45.36    \nframe=  210 fps=0.7 q=40.9 size=     256KiB time=00:00:01.73 bitrate=1210.1kbits/s speed=0.00606x elapsed=0:04:45.88    \nframe=  210 fps=0.7 q=40.9 size=     256KiB time=00:00:01.73 bitrate=1210.1kbits/s speed=0.00605x elapsed=0:04:46.39    \nframe=  211 fps=0.7 q=40.6 size=     256KiB time=00:00:01.74 bitrate=1204.3kbits/s speed=0.00607x elapsed=0:04:46.91    \nframe=  211 fps=0.7 q=40.6 size=     256KiB time=00:00:01.74 bitrate=1204.3kbits/s speed=0.00606x elapsed=0:04:47.42    \nframe=  212 fps=0.7 q=35.8 size=     256KiB time=00:00:01.75 bitrate=1198.6kbits/s speed=0.00608x elapsed=0:04:47.93    \nframe=  213 fps=0.7 q=40.5 size=     256KiB time=00:00:01.75 bitrate=1192.9kbits/s speed=0.0061x elapsed=0:04:48.46    \nframe=  214 fps=0.7 q=41.4 size=     256KiB time=00:00:01.76 bitrate=1187.3kbits/s speed=0.00611x elapsed=0:04:48.97    \nframe=  215 fps=0.7 q=40.9 size=     256KiB time=00:00:01.77 bitrate=1181.7kbits/s speed=0.00613x elapsed=0:04:49.48    \nframe=  215 fps=0.7 q=40.9 size=     256KiB time=00:00:01.77 bitrate=1181.7kbits/s speed=0.00612x elapsed=0:04:49.99    \nframe=  216 fps=0.7 q=40.5 size=     256KiB time=00:00:01.78 bitrate=1176.2kbits/s speed=0.00614x elapsed=0:04:50.52    \nframe=  216 fps=0.7 q=40.5 size=     256KiB time=00:00:01.78 bitrate=1176.2kbits/s speed=0.00613x elapsed=0:04:51.03    \nframe=  217 fps=0.7 q=35.8 size=     256KiB time=00:00:01.79 bitrate=1170.7kbits/s speed=0.00615x elapsed=0:04:51.55    \nframe=  217 fps=0.7 q=35.8 size=     256KiB time=00:00:01.79 bitrate=1170.7kbits/s speed=0.00613x elapsed=0:04:52.06    \nframe=  218 fps=0.7 q=40.5 size=     256KiB time=00:00:01.80 bitrate=1165.3kbits/s speed=0.00615x elapsed=0:04:52.58    \nframe=  219 fps=0.7 q=40.8 size=     256KiB time=00:00:01.80 bitrate=1159.9kbits/s speed=0.00617x elapsed=0:04:53.10    \nframe=  219 fps=0.7 q=40.8 size=     256KiB time=00:00:01.80 bitrate=1159.9kbits/s speed=0.00616x elapsed=0:04:53.61    \nframe=  219 fps=0.7 q=40.8 size=     256KiB time=00:00:01.80 bitrate=1159.9kbits/s speed=0.00615x elapsed=0:04:54.13    \nframe=  220 fps=0.7 q=40.9 size=     256KiB time=00:00:01.81 bitrate=1154.6kbits/s speed=0.00617x elapsed=0:04:54.64    \nframe=  220 fps=0.7 q=40.9 size=     256KiB time=00:00:01.81 bitrate=1154.6kbits/s speed=0.00615x elapsed=0:04:55.16    \nframe=  220 fps=0.7 q=40.9 size=     256KiB time=00:00:01.81 bitrate=1154.6kbits/s speed=0.00614x elapsed=0:04:55.67    \nframe=  220 fps=0.7 q=40.9 size=     256KiB time=00:00:01.81 bitrate=1154.6kbits/s speed=0.00613x elapsed=0:04:56.19    \nframe=  221 fps=0.7 q=40.2 size=     256KiB time=00:00:01.82 bitrate=1149.3kbits/s speed=0.00615x elapsed=0:04:56.70    \nframe=  221 fps=0.7 q=40.2 size=     256KiB time=00:00:01.82 bitrate=1149.3kbits/s speed=0.00614x elapsed=0:04:57.22    \nframe=  222 fps=0.7 q=35.4 size=     256KiB time=00:00:01.83 bitrate=1144.1kbits/s speed=0.00616x elapsed=0:04:57.73    \nframe=  222 fps=0.7 q=35.4 size=     256KiB time=00:00:01.83 bitrate=1144.1kbits/s speed=0.00615x elapsed=0:04:58.25    \nframe=  222 fps=0.7 q=35.4 size=     256KiB time=00:00:01.83 bitrate=1144.1kbits/s speed=0.00614x elapsed=0:04:58.77    \nframe=  223 fps=0.7 q=40.2 size=     256KiB time=00:00:01.84 bitrate=1138.9kbits/s speed=0.00615x elapsed=0:04:59.28    \nframe=  224 fps=0.7 q=40.5 size=     256KiB time=00:00:01.85 bitrate=1133.8kbits/s speed=0.00617x elapsed=0:04:59.80    \nframe=  224 fps=0.7 q=40.5 size=     256KiB time=00:00:01.85 bitrate=1133.8kbits/s speed=0.00616x elapsed=0:05:00.31    \nframe=  224 fps=0.7 q=40.5 size=     256KiB time=00:00:01.85 bitrate=1133.8kbits/s speed=0.00615x elapsed=0:05:00.82    \nframe=  224 fps=0.7 q=40.5 size=     256KiB time=00:00:01.85 bitrate=1133.8kbits/s speed=0.00614x elapsed=0:05:01.34    \nframe=  225 fps=0.7 q=40.5 size=     256KiB time=00:00:01.85 bitrate=1128.7kbits/s speed=0.00616x elapsed=0:05:01.86    \nframe=  225 fps=0.7 q=40.5 size=     256KiB time=00:00:01.85 bitrate=1128.7kbits/s speed=0.00615x elapsed=0:05:02.38    \nframe=  225 fps=0.7 q=40.5 size=     256KiB time=00:00:01.85 bitrate=1128.7kbits/s speed=0.00614x elapsed=0:05:02.88    \nframe=  226 fps=0.7 q=40.7 size=     256KiB time=00:00:01.86 bitrate=1123.7kbits/s speed=0.00615x elapsed=0:05:03.41    \nframe=  226 fps=0.7 q=40.7 size=     256KiB time=00:00:01.86 bitrate=1123.7kbits/s speed=0.00614x elapsed=0:05:03.92    \nframe=  227 fps=0.7 q=38.6 size=     256KiB time=00:00:01.87 bitrate=1118.7kbits/s speed=0.00616x elapsed=0:05:04.44    \nframe=  227 fps=0.7 q=38.6 size=     256KiB time=00:00:01.87 bitrate=1118.7kbits/s speed=0.00615x elapsed=0:05:04.96    \nframe=  227 fps=0.7 q=38.6 size=     256KiB time=00:00:01.87 bitrate=1118.7kbits/s speed=0.00614x elapsed=0:05:05.48    \nframe=  228 fps=0.7 q=42.5 size=     256KiB time=00:00:01.88 bitrate=1113.7kbits/s speed=0.00615x elapsed=0:05:06.00    \nframe=  228 fps=0.7 q=42.5 size=     256KiB time=00:00:01.88 bitrate=1113.7kbits/s speed=0.00614x elapsed=0:05:06.52    \nframe=  229 fps=0.7 q=43.3 size=     256KiB time=00:00:01.89 bitrate=1108.8kbits/s speed=0.00616x elapsed=0:05:07.02    \nframe=  230 fps=0.7 q=43.4 size=     256KiB time=00:00:01.90 bitrate=1103.9kbits/s speed=0.00618x elapsed=0:05:07.55    \nframe=  230 fps=0.7 q=43.4 size=     256KiB time=00:00:01.90 bitrate=1103.9kbits/s speed=0.00617x elapsed=0:05:08.06    \nframe=  230 fps=0.7 q=43.4 size=     256KiB time=00:00:01.90 bitrate=1103.9kbits/s speed=0.00616x elapsed=0:05:08.58    \nframe=  230 fps=0.7 q=43.4 size=     256KiB time=00:00:01.90 bitrate=1103.9kbits/s speed=0.00615x elapsed=0:05:09.09    \nframe=  231 fps=0.7 q=44.3 size=     256KiB time=00:00:01.90 bitrate=1099.1kbits/s speed=0.00616x elapsed=0:05:09.61    \nframe=  231 fps=0.7 q=44.3 size=     256KiB time=00:00:01.90 bitrate=1099.1kbits/s speed=0.00615x elapsed=0:05:10.12    \nframe=  231 fps=0.7 q=44.3 size=     256KiB time=00:00:01.90 bitrate=1099.1kbits/s speed=0.00614x elapsed=0:05:10.64    \nframe=  232 fps=0.7 q=38.9 size=     256KiB time=00:00:01.91 bitrate=1094.3kbits/s speed=0.00616x elapsed=0:05:11.15    \nframe=  233 fps=0.7 q=43.5 size=     256KiB time=00:00:01.92 bitrate=1089.6kbits/s speed=0.00618x elapsed=0:05:11.68    \nframe=  234 fps=0.7 q=44.6 size=     256KiB time=00:00:01.93 bitrate=1084.9kbits/s speed=0.00619x elapsed=0:05:12.18    \nframe=  234 fps=0.7 q=44.6 size=     256KiB time=00:00:01.93 bitrate=1084.9kbits/s speed=0.00618x elapsed=0:05:12.70    \nframe=  234 fps=0.7 q=44.6 size=     256KiB time=00:00:01.93 bitrate=1084.9kbits/s speed=0.00617x elapsed=0:05:13.21    \nframe=  235 fps=0.7 q=44.5 size=     256KiB time=00:00:01.94 bitrate=1080.3kbits/s speed=0.00619x elapsed=0:05:13.73    \nframe=  235 fps=0.7 q=44.5 size=     256KiB time=00:00:01.94 bitrate=1080.3kbits/s speed=0.00618x elapsed=0:05:14.26    \nframe=  235 fps=0.7 q=44.5 size=     256KiB time=00:00:01.94 bitrate=1080.3kbits/s speed=0.00617x elapsed=0:05:14.77    \nframe=  235 fps=0.7 q=44.5 size=     256KiB time=00:00:01.94 bitrate=1080.3kbits/s speed=0.00616x elapsed=0:05:15.28    \nframe=  236 fps=0.7 q=44.5 size=     256KiB time=00:00:01.95 bitrate=1075.6kbits/s speed=0.00617x elapsed=0:05:15.79    \nframe=  237 fps=0.7 q=39.0 size=     256KiB time=00:00:01.95 bitrate=1071.1kbits/s speed=0.00619x elapsed=0:05:16.31    \nframe=  238 fps=0.8 q=43.2 size=     256KiB time=00:00:01.96 bitrate=1066.5kbits/s speed=0.00621x elapsed=0:05:16.83    \nframe=  239 fps=0.8 q=44.2 size=     256KiB time=00:00:01.97 bitrate=1062.0kbits/s speed=0.00622x elapsed=0:05:17.34    \nframe=  240 fps=0.8 q=44.5 size=     256KiB time=00:00:01.98 bitrate=1057.6kbits/s speed=0.00624x elapsed=0:05:17.86    \nframe=  240 fps=0.8 q=44.5 size=     256KiB time=00:00:01.98 bitrate=1057.6kbits/s speed=0.00623x elapsed=0:05:18.38    \nframe=  241 fps=0.8 q=44.6 size=     256KiB time=00:00:01.99 bitrate=1053.1kbits/s speed=0.00625x elapsed=0:05:18.88    \nframe=  241 fps=0.8 q=44.6 size=     256KiB time=00:00:01.99 bitrate=1053.1kbits/s speed=0.00624x elapsed=0:05:19.41    \nframe=  242 fps=0.8 q=38.4 size=     256KiB time=00:00:02.00 bitrate=1048.8kbits/s speed=0.00625x elapsed=0:05:19.92    \nframe=  242 fps=0.8 q=38.4 size=     256KiB time=00:00:02.00 bitrate=1048.8kbits/s speed=0.00624x elapsed=0:05:20.44    \nframe=  242 fps=0.8 q=38.4 size=     256KiB time=00:00:02.00 bitrate=1048.8kbits/s speed=0.00623x elapsed=0:05:20.95    \nframe=  243 fps=0.8 q=43.4 size=     256KiB time=00:00:02.00 bitrate=1044.4kbits/s speed=0.00625x elapsed=0:05:21.48    \nframe=  244 fps=0.8 q=44.2 size=     256KiB time=00:00:02.01 bitrate=1040.1kbits/s speed=0.00626x elapsed=0:05:21.98    \nframe=  244 fps=0.8 q=44.2 size=     256KiB time=00:00:02.01 bitrate=1040.1kbits/s speed=0.00625x elapsed=0:05:22.50    \nframe=  244 fps=0.8 q=44.2 size=     256KiB time=00:00:02.01 bitrate=1040.1kbits/s speed=0.00624x elapsed=0:05:23.01    \nframe=  244 fps=0.8 q=44.2 size=     256KiB time=00:00:02.01 bitrate=1040.1kbits/s speed=0.00623x elapsed=0:05:23.53    \nframe=  244 fps=0.8 q=44.2 size=     256KiB time=00:00:02.01 bitrate=1040.1kbits/s speed=0.00622x elapsed=0:05:24.05    \nframe=  245 fps=0.8 q=43.6 size=     256KiB time=00:00:02.02 bitrate=1035.8kbits/s speed=0.00624x elapsed=0:05:24.56    \nframe=  245 fps=0.8 q=43.6 size=     256KiB time=00:00:02.02 bitrate=1035.8kbits/s speed=0.00623x elapsed=0:05:25.08    \nframe=  246 fps=0.8 q=44.4 size=     256KiB time=00:00:02.03 bitrate=1031.6kbits/s speed=0.00624x elapsed=0:05:25.59    \nframe=  246 fps=0.8 q=44.4 size=     256KiB time=00:00:02.03 bitrate=1031.6kbits/s speed=0.00623x elapsed=0:05:26.12    \nframe=  246 fps=0.8 q=44.4 size=     256KiB time=00:00:02.03 bitrate=1031.6kbits/s speed=0.00622x elapsed=0:05:26.64    \nframe=  246 fps=0.8 q=44.4 size=     256KiB time=00:00:02.03 bitrate=1031.6kbits/s speed=0.00622x elapsed=0:05:27.16    \nframe=  246 fps=0.8 q=44.4 size=     256KiB time=00:00:02.03 bitrate=1031.6kbits/s speed=0.00621x elapsed=0:05:27.67    \nframe=  246 fps=0.7 q=44.4 size=     256KiB time=00:00:02.03 bitrate=1031.6kbits/s speed=0.0062x elapsed=0:05:28.18    \nframe=  246 fps=0.7 q=44.4 size=     256KiB time=00:00:02.03 bitrate=1031.6kbits/s speed=0.00619x elapsed=0:05:28.71    \nframe=  246 fps=0.7 q=44.4 size=     256KiB time=00:00:02.03 bitrate=1031.6kbits/s speed=0.00618x elapsed=0:05:29.21    \nframe=  247 fps=0.7 q=33.2 size=     256KiB time=00:00:02.04 bitrate=1027.3kbits/s speed=0.00619x elapsed=0:05:29.74    \nframe=  247 fps=0.7 q=33.2 size=     256KiB time=00:00:02.04 bitrate=1027.3kbits/s speed=0.00618x elapsed=0:05:30.25    \nframe=  247 fps=0.7 q=33.2 size=     256KiB time=00:00:02.04 bitrate=1027.3kbits/s speed=0.00617x elapsed=0:05:30.77    \nframe=  248 fps=0.7 q=43.4 size=     256KiB time=00:00:02.05 bitrate=1023.2kbits/s speed=0.00619x elapsed=0:05:31.28    \nframe=  248 fps=0.7 q=43.4 size=     256KiB time=00:00:02.05 bitrate=1023.2kbits/s speed=0.00618x elapsed=0:05:31.80    \nframe=  249 fps=0.7 q=44.6 size=     512KiB time=00:00:02.05 bitrate=2037.9kbits/s speed=0.00619x elapsed=0:05:32.31    \nframe=  251 fps=0.8 q=44.7 size=     512KiB time=00:00:02.07 bitrate=2021.5kbits/s speed=0.00623x elapsed=0:05:32.83    \nframe=  251 fps=0.8 q=44.7 size=     512KiB time=00:00:02.07 bitrate=2021.5kbits/s speed=0.00622x elapsed=0:05:33.34    \nframe=  251 fps=0.8 q=44.7 size=     512KiB time=00:00:02.07 bitrate=2021.5kbits/s speed=0.00622x elapsed=0:05:33.85    \nframe=  252 fps=0.8 q=39.5 size=     512KiB time=00:00:02.08 bitrate=2013.4kbits/s speed=0.00623x elapsed=0:05:34.38    \nframe=  252 fps=0.8 q=39.5 size=     512KiB time=00:00:02.08 bitrate=2013.4kbits/s speed=0.00622x elapsed=0:05:34.89    \nframe=  252 fps=0.8 q=39.5 size=     512KiB time=00:00:02.08 bitrate=2013.4kbits/s speed=0.00621x elapsed=0:05:35.41    \nframe=  253 fps=0.8 q=43.5 size=     512KiB time=00:00:02.09 bitrate=2005.4kbits/s speed=0.00623x elapsed=0:05:35.92    \nframe=  254 fps=0.8 q=44.8 size=     512KiB time=00:00:02.10 bitrate=1997.5kbits/s speed=0.00624x elapsed=0:05:36.43    \nframe=  255 fps=0.8 q=44.6 size=     512KiB time=00:00:02.10 bitrate=1989.6kbits/s speed=0.00626x elapsed=0:05:36.95    \nframe=  255 fps=0.8 q=44.6 size=     512KiB time=00:00:02.10 bitrate=1989.6kbits/s speed=0.00625x elapsed=0:05:37.46    \nframe=  256 fps=0.8 q=44.4 size=     512KiB time=00:00:02.11 bitrate=1981.7kbits/s speed=0.00626x elapsed=0:05:37.98    \nframe=  257 fps=0.8 q=37.7 size=     512KiB time=00:00:02.12 bitrate=1974.0kbits/s speed=0.00628x elapsed=0:05:38.50    \nframe=  257 fps=0.8 q=37.7 size=     512KiB time=00:00:02.12 bitrate=1974.0kbits/s speed=0.00627x elapsed=0:05:39.01    \nframe=  257 fps=0.8 q=37.7 size=     512KiB time=00:00:02.12 bitrate=1974.0kbits/s speed=0.00626x elapsed=0:05:39.53    \nframe=  258 fps=0.8 q=42.5 size=     512KiB time=00:00:02.13 bitrate=1966.2kbits/s speed=0.00627x elapsed=0:05:40.04    \nframe=  258 fps=0.8 q=42.5 size=     512KiB time=00:00:02.13 bitrate=1966.2kbits/s speed=0.00626x elapsed=0:05:40.56    \nframe=  259 fps=0.8 q=44.4 size=     512KiB time=00:00:02.14 bitrate=1958.6kbits/s speed=0.00628x elapsed=0:05:41.08    \nframe=  260 fps=0.8 q=42.9 size=     512KiB time=00:00:02.15 bitrate=1951.0kbits/s speed=0.00629x elapsed=0:05:41.60    \nframe=  261 fps=0.8 q=42.7 size=     512KiB time=00:00:02.15 bitrate=1943.5kbits/s speed=0.00631x elapsed=0:05:42.10    \nframe=  262 fps=0.8 q=36.4 size=     512KiB time=00:00:02.16 bitrate=1936.0kbits/s speed=0.00632x elapsed=0:05:42.63    \nframe=  262 fps=0.8 q=36.4 size=     512KiB time=00:00:02.16 bitrate=1936.0kbits/s speed=0.00631x elapsed=0:05:43.13    \nframe=  263 fps=0.8 q=41.5 size=     512KiB time=00:00:02.17 bitrate=1928.6kbits/s speed=0.00633x elapsed=0:05:43.65    \nframe=  263 fps=0.8 q=41.5 size=     512KiB time=00:00:02.17 bitrate=1928.6kbits/s speed=0.00632x elapsed=0:05:44.17    \nframe=  263 fps=0.8 q=41.5 size=     512KiB time=00:00:02.17 bitrate=1928.6kbits/s speed=0.00631x elapsed=0:05:44.69    \nframe=  264 fps=0.8 q=42.3 size=     512KiB time=00:00:02.18 bitrate=1921.2kbits/s speed=0.00632x elapsed=0:05:45.20    \nframe=  265 fps=0.8 q=41.6 size=     512KiB time=00:00:02.19 bitrate=1913.9kbits/s speed=0.00634x elapsed=0:05:45.72    \nframe=  266 fps=0.8 q=41.6 size=     512KiB time=00:00:02.20 bitrate=1906.7kbits/s speed=0.00635x elapsed=0:05:46.24    \nframe=  266 fps=0.8 q=41.6 size=     512KiB time=00:00:02.20 bitrate=1906.7kbits/s speed=0.00634x elapsed=0:05:46.76    \nframe=  266 fps=0.8 q=41.6 size=     512KiB time=00:00:02.20 bitrate=1906.7kbits/s speed=0.00634x elapsed=0:05:47.26    \nframe=  267 fps=0.8 q=36.5 size=     512KiB time=00:00:02.20 bitrate=1899.5kbits/s speed=0.00635x elapsed=0:05:47.78    \nframe=  268 fps=0.8 q=41.3 size=     512KiB time=00:00:02.21 bitrate=1892.3kbits/s speed=0.00636x elapsed=0:05:48.29    \nframe=  268 fps=0.8 q=41.3 size=     512KiB time=00:00:02.21 bitrate=1892.3kbits/s speed=0.00635x elapsed=0:05:48.81    \nframe=  269 fps=0.8 q=41.4 size=     512KiB time=00:00:02.22 bitrate=1885.2kbits/s speed=0.00637x elapsed=0:05:49.33    \nframe=  269 fps=0.8 q=41.4 size=     512KiB time=00:00:02.22 bitrate=1885.2kbits/s speed=0.00636x elapsed=0:05:49.85    \nframe=  271 fps=0.8 q=41.3 size=     512KiB time=00:00:02.24 bitrate=1871.2kbits/s speed=0.0064x elapsed=0:05:50.36    \nframe=  271 fps=0.8 q=41.3 size=     512KiB time=00:00:02.24 bitrate=1871.2kbits/s speed=0.00639x elapsed=0:05:50.87    \nframe=  271 fps=0.8 q=41.3 size=     512KiB time=00:00:02.24 bitrate=1871.2kbits/s speed=0.00638x elapsed=0:05:51.40    \nframe=  271 fps=0.8 q=41.3 size=     512KiB time=00:00:02.24 bitrate=1871.2kbits/s speed=0.00637x elapsed=0:05:51.90    \nframe=  272 fps=0.8 q=35.3 size=     512KiB time=00:00:02.25 bitrate=1864.3kbits/s speed=0.00638x elapsed=0:05:52.42    \nframe=  272 fps=0.8 q=35.3 size=     512KiB time=00:00:02.25 bitrate=1864.3kbits/s speed=0.00637x elapsed=0:05:52.95    \nframe=  273 fps=0.8 q=40.6 size=     512KiB time=00:00:02.25 bitrate=1857.4kbits/s speed=0.00639x elapsed=0:05:53.47    \nframe=  273 fps=0.8 q=40.6 size=     512KiB time=00:00:02.25 bitrate=1857.4kbits/s speed=0.00638x elapsed=0:05:53.99    \nframe=  273 fps=0.8 q=40.6 size=     512KiB time=00:00:02.25 bitrate=1857.4kbits/s speed=0.00637x elapsed=0:05:54.50    \nframe=  273 fps=0.8 q=40.6 size=     512KiB time=00:00:02.25 bitrate=1857.4kbits/s speed=0.00636x elapsed=0:05:55.01    \nframe=  273 fps=0.8 q=40.6 size=     512KiB time=00:00:02.25 bitrate=1857.4kbits/s speed=0.00635x elapsed=0:05:55.53    \nframe=  274 fps=0.8 q=41.2 size=     512KiB time=00:00:02.26 bitrate=1850.6kbits/s speed=0.00637x elapsed=0:05:56.04    \nframe=  274 fps=0.8 q=41.2 size=     512KiB time=00:00:02.26 bitrate=1850.6kbits/s speed=0.00636x elapsed=0:05:56.56    \nframe=  275 fps=0.8 q=40.4 size=     512KiB time=00:00:02.27 bitrate=1843.8kbits/s speed=0.00637x elapsed=0:05:57.08    \nframe=  275 fps=0.8 q=40.4 size=     512KiB time=00:00:02.27 bitrate=1843.8kbits/s speed=0.00636x elapsed=0:05:57.60    \nframe=  277 fps=0.8 q=35.0 size=     512KiB time=00:00:02.29 bitrate=1830.4kbits/s speed=0.0064x elapsed=0:05:58.11    \nframe=  278 fps=0.8 q=40.4 size=     512KiB time=00:00:02.30 bitrate=1823.8kbits/s speed=0.00641x elapsed=0:05:58.62    \nframe=  280 fps=0.8 q=39.4 size=     512KiB time=00:00:02.31 bitrate=1810.6kbits/s speed=0.00645x elapsed=0:05:59.14    \nframe=  281 fps=0.8 q=33.4 size=     512KiB time=00:00:02.32 bitrate=1804.2kbits/s speed=0.00646x elapsed=0:05:59.66    \nframe=  282 fps=0.8 q=39.7 size=     512KiB time=00:00:02.33 bitrate=1797.7kbits/s speed=0.00648x elapsed=0:06:00.18    \nframe=  284 fps=0.8 q=38.7 size=     512KiB time=00:00:02.35 bitrate=1785.0kbits/s speed=0.00652x elapsed=0:06:00.69    \nframe=  285 fps=0.8 q=38.6 size=     512KiB time=00:00:02.35 bitrate=1778.7kbits/s speed=0.00653x elapsed=0:06:01.20    \nframe=  287 fps=0.8 q=39.3 size=     512KiB time=00:00:02.37 bitrate=1766.2kbits/s speed=0.00657x elapsed=0:06:01.72    \nframe=  288 fps=0.8 q=38.5 size=     512KiB time=00:00:02.38 bitrate=1760.0kbits/s speed=0.00658x elapsed=0:06:02.24    \nframe=  290 fps=0.8 q=37.7 size=     512KiB time=00:00:02.40 bitrate=1747.8kbits/s speed=0.00662x elapsed=0:06:02.75    \nframe=  292 fps=0.8 q=35.7 size=     512KiB time=00:00:02.41 bitrate=1735.7kbits/s speed=0.00665x elapsed=0:06:03.26    \nframe=  295 fps=0.8 q=35.5 size=     512KiB time=00:00:02.44 bitrate=1717.9kbits/s speed=0.00671x elapsed=0:06:03.78    \nframe=  296 fps=0.8 q=32.3 size=     512KiB time=00:00:02.45 bitrate=1712.1kbits/s speed=0.00673x elapsed=0:06:04.29    \nframe=  299 fps=0.8 q=34.9 size=     512KiB time=00:00:02.47 bitrate=1694.8kbits/s speed=0.00678x elapsed=0:06:04.82    \n[mp4 @ 00000178acb3b780] Starting second pass: moving the moov atom to the beginning of the file\n[out#0/mp4 @ 00000178acb3b640] video:581KiB audio:0KiB subtitle:0KiB other streams:0KiB global headers:2KiB muxing overhead: 1.143796%\nframe=  300 fps=0.8 q=34.9 Lsize=     587KiB time=00:00:02.48 bitrate=1938.0kbits/s speed=0.0068x elapsed=0:06:04.94    \nx265 [info]: frame I:      2, Avg QP:41.82  kb/s: 25322.88\nx265 [info]: frame P:     59, Avg QP:38.63  kb/s: 4867.49 \nx265 [info]: frame B:    239, Avg QP:43.43  kb/s: 970.72  \nx265 [info]: Weighted P-Frames: Y:0.0% UV:0.0%\n\nencoded 300 frames in 364.78s (0.82 fps), 1899.44 kb/s, Avg QP:42.48\n",
  "seconds": 365.1559202671051,
  "probe_out": {}
}